<?xml version="1.0" encoding="UTF-8"?>
<svg width="133px" height="16px" viewBox="0 0 133 16" version="1.1" xmlns="http://www.w3.org/2000/svg" xmlns:xlink="http://www.w3.org/1999/xlink">
    <!-- Generator: Sketch 51.2 (57519) - http://www.bohemiancoding.com/sketch -->
    <title>Group 26</title>
    <desc>Created with Sketch.</desc>
    <defs></defs>
    <g id="Page-1" stroke="none" stroke-width="1" fill="none" fill-rule="evenodd">
        <g id="Desktop-HD-ver.-2.4" transform="translate(-205.000000, -35.000000)">
            <g id="Group">
                <g id="Group-26" transform="translate(205.000000, 35.000000)">
                    <path d="M81.0027064,10.9336942 L83.7740189,0.324763194 L86.826793,0.324763194 L82.5832206,15.6752368 L79.5087957,15.6752368 L76.0013532,4.74154263 L72.4939107,15.6752368 L69.376184,15.6752368 L65.1109608,0.324763194 L68.2719892,0.324763194 L71.0866035,10.8903924 L74.4857916,0.324763194 L77.5818674,0.324763194 L81.0027064,10.9336942 Z M90.5290934,7.98917456 C90.5290934,11.4533153 92.9539919,13.0987821 95.3139378,13.0987821 C97.6955345,13.0987821 100.120433,11.4533153 100.120433,7.98917456 C100.120433,4.52503383 97.6955345,2.87956698 95.3139378,2.87956698 C92.9539919,2.87956698 90.5290934,4.52503383 90.5290934,7.98917456 Z M87.4330176,8.01082544 C87.4330176,3.05277402 91.1569689,0 95.3139378,0 C99.4925575,0 103.216509,3.05277402 103.216509,8.01082544 C103.216509,12.947226 99.4925575,16 95.3139378,16 C91.1569689,16 87.4330176,12.947226 87.4330176,8.01082544 Z M113.392422,15.6752368 L110.38295,9.76454668 L108.824087,9.76454668 L108.824087,15.6752368 L105.814614,15.6752368 L105.814614,0.324763194 L111.811908,0.324763194 C114.799729,0.324763194 116.705007,2.38159675 116.705007,5.04465494 C116.705007,7.18809202 115.449256,8.81190798 113.435724,9.39648173 L116.726658,15.6752368 L113.392422,15.6752368 Z M108.824087,7.18809202 L111.248985,7.18809202 C112.764547,7.18809202 113.652233,6.32205683 113.652233,5.06630582 C113.652233,3.76725304 112.764547,2.92286874 111.248985,2.92286874 L108.824087,2.92286874 L108.824087,7.18809202 Z M122.334235,12.9039242 L124.715832,12.9039242 C127.227334,12.9039242 129.32747,11.3450609 129.32747,8.01082544 C129.32747,4.67658999 127.248985,3.09607578 124.737483,3.09607578 L122.334235,3.09607578 L122.334235,12.9039242 Z M124.824087,15.6752368 L119.346414,15.6752368 L119.346414,0.324763194 L124.845737,0.324763194 C129.219215,0.324763194 132.423545,3.16102842 132.423545,8.01082544 C132.423545,12.8606225 129.197564,15.6752368 124.824087,15.6752368 Z" id="HeadWord" fill="#FFFFFF"></path>
                    <path d="M12.6874154,15.6752368 L9.67794317,15.6752368 L9.67794317,9.30987821 L2.98782138,9.30987821 L2.98782138,15.6752368 L0,15.6752368 L0,0.324763194 L2.98782138,0.324763194 L2.98782138,6.49526387 L9.67794317,6.49526387 L9.67794317,0.324763194 L12.6874154,0.324763194 L12.6874154,15.6752368 Z M25.8078484,15.6752368 L16.1948579,15.6752368 L16.1948579,0.324763194 L25.8078484,0.324763194 L25.8078484,3.13937754 L19.1826793,3.13937754 L19.1826793,6.64682003 L25.1799729,6.64682003 L25.1799729,9.30987821 L19.1826793,9.30987821 L19.1826793,12.8606225 L25.8078484,12.8606225 L25.8078484,15.6752368 Z M39.2097429,15.6752368 L37.932341,12.1677943 L31.6968877,12.1677943 L30.4194858,15.6752368 L27.2584574,15.6752368 L33.1474966,0.324763194 L36.6116373,0.324763194 L42.4573748,15.6752368 L39.2097429,15.6752368 Z M34.8146143,3.63734777 L32.6928281,9.43978349 L36.9364005,9.43978349 L34.8146143,3.63734777 Z M49.9052774,15.6752368 L44.4276049,15.6752368 L44.4276049,0.324763194 L49.9269283,0.324763194 C54.300406,0.324763194 57.5047361,3.16102842 57.5047361,8.01082544 C57.5047361,12.8606225 54.2787551,15.6752368 49.9052774,15.6752368 Z M47.4154263,12.9039242 L49.797023,12.9039242 C52.308525,12.9039242 54.4086604,11.3450609 54.4086604,8.01082544 C54.4086604,4.67658999 52.3301759,3.09607578 49.8186739,3.09607578 L47.4154263,3.09607578 L47.4154263,12.9039242 Z" id="Path" fill="#FFFFFF"></path>
                    <circle id="Oval-4" fill-opacity="0.297356205" fill="#000000" cx="62.5" cy="13.5" r="2.5"></circle>
                </g>
            </g>
        </g>
    </g>
</svg>