<?xml version="1.0" encoding="UTF-8"?>
<svg width="828px" height="100px" viewBox="0 0 828 100" version="1.1" xmlns="http://www.w3.org/2000/svg" xmlns:xlink="http://www.w3.org/1999/xlink">
    <!-- Generator: Sketch 51.2 (57519) - http://www.bohemiancoding.com/sketch -->
    <title>Group 26</title>
    <desc>Created with Sketch.</desc>
    <defs></defs>
    <g id="Page-1" stroke="none" stroke-width="1" fill="none" fill-rule="evenodd">
        <g id="Desktop-HD-ver.-2.4" transform="translate(-549.000000, -1238.000000)" fill="#F5FBFE">
            <g id="Group-12" transform="translate(549.000000, 880.000000)">
                <g id="Group-26" transform="translate(0.000000, 358.000000)">
                    <path d="M506.266915,68.3355886 L523.587618,2.02976996 L542.667456,2.02976996 L516.145129,97.97023 L496.929973,97.97023 L475.008457,29.6346414 L453.086942,97.97023 L433.60115,97.97023 L406.943505,2.02976996 L426.699932,2.02976996 L444.291272,68.0649526 L465.536198,2.02976996 L484.886671,2.02976996 L506.266915,68.3355886 Z M565.806834,49.932341 C565.806834,71.5832206 580.962449,81.8673884 595.712111,81.8673884 C610.597091,81.8673884 625.752706,71.5832206 625.752706,49.932341 C625.752706,28.2814614 610.597091,17.9972936 595.712111,17.9972936 C580.962449,17.9972936 565.806834,28.2814614 565.806834,49.932341 Z M546.45636,50.067659 C546.45636,19.0798376 569.731055,0 595.712111,0 C621.828484,0 645.10318,19.0798376 645.10318,50.067659 C645.10318,80.9201624 621.828484,100 595.712111,100 C569.731055,100 546.45636,80.9201624 546.45636,50.067659 Z M708.702639,97.97023 L689.893437,61.0284168 L680.150541,61.0284168 L680.150541,97.97023 L661.34134,97.97023 L661.34134,2.02976996 L698.824425,2.02976996 C717.498309,2.02976996 729.406292,14.8849797 729.406292,31.5290934 C729.406292,44.9255751 721.557848,55.0744249 708.973275,58.7280108 L729.54161,97.97023 L708.702639,97.97023 Z M680.150541,44.9255751 L695.306157,44.9255751 C704.778417,44.9255751 710.326455,39.5128552 710.326455,31.6644114 C710.326455,23.5453315 704.778417,18.2679296 695.306157,18.2679296 L680.150541,18.2679296 L680.150541,44.9255751 Z M764.588972,80.6495264 L779.473951,80.6495264 C795.170839,80.6495264 808.296685,70.9066306 808.296685,50.067659 C808.296685,29.2286874 795.306157,19.3504736 779.609269,19.3504736 L764.588972,19.3504736 L764.588972,80.6495264 Z M780.150541,97.97023 L745.915088,97.97023 L745.915088,2.02976996 L780.285859,2.02976996 C807.620095,2.02976996 827.647158,19.7564276 827.647158,50.067659 C827.647158,80.3788904 807.484777,97.97023 780.150541,97.97023 Z" id="HeadWord"></path>
                    <path d="M79.2963464,97.97023 L60.4871448,97.97023 L60.4871448,58.1867388 L18.6738836,58.1867388 L18.6738836,97.97023 L0,97.97023 L0,2.02976996 L18.6738836,2.02976996 L18.6738836,40.5953992 L60.4871448,40.5953992 L60.4871448,2.02976996 L79.2963464,2.02976996 L79.2963464,97.97023 Z M161.299053,97.97023 L101.217862,97.97023 L101.217862,2.02976996 L161.299053,2.02976996 L161.299053,19.6211096 L119.891746,19.6211096 L119.891746,41.5426252 L157.374831,41.5426252 L157.374831,58.1867388 L119.891746,58.1867388 L119.891746,80.3788904 L161.299053,80.3788904 L161.299053,97.97023 Z M245.060893,97.97023 L237.077131,76.0487145 L198.105548,76.0487145 L190.121786,97.97023 L170.365359,97.97023 L207.171854,2.02976996 L228.822733,2.02976996 L265.358593,97.97023 L245.060893,97.97023 Z M217.59134,22.7334235 L204.330176,58.9986468 L230.852503,58.9986468 L217.59134,22.7334235 Z M311.907984,97.97023 L277.67253,97.97023 L277.67253,2.02976996 L312.043302,2.02976996 C339.377537,2.02976996 359.404601,19.7564276 359.404601,50.067659 C359.404601,80.3788904 339.242219,97.97023 311.907984,97.97023 Z M296.346414,80.6495264 L311.231394,80.6495264 C326.928281,80.6495264 340.054127,70.9066306 340.054127,50.067659 C340.054127,29.2286874 327.063599,19.3504736 311.366712,19.3504736 L296.346414,19.3504736 L296.346414,80.6495264 Z" id="Path"></path>
                    <circle id="Oval-4" cx="390.625" cy="84.375" r="15.625"></circle>
                </g>
            </g>
        </g>
    </g>
</svg>