<?xml version="1.0" encoding="UTF-8"?>
<svg width="68px" height="37px" viewBox="0 0 68 37" version="1.1" xmlns="http://www.w3.org/2000/svg" xmlns:xlink="http://www.w3.org/1999/xlink">
    <!-- Generator: Sketch 51.2 (57519) - http://www.bohemiancoding.com/sketch -->
    <title>Group 26 Copy</title>
    <desc>Created with Sketch.</desc>
    <defs></defs>
    <g id="Page-1" stroke="none" stroke-width="1" fill="none" fill-rule="evenodd">
        <g id="Desktop-HD-ver.-2.4" transform="translate(-205.000000, -54.000000)">
            <g id="Group">
                <g id="Group-26-Copy" transform="translate(205.000000, 54.000000)">
                    <path d="M15.8917456,31.9336942 L18.6630582,21.3247632 L21.7158322,21.3247632 L17.4722598,36.6752368 L14.3978349,36.6752368 L10.8903924,25.7415426 L7.38294993,36.6752368 L4.26522327,36.6752368 L0,21.3247632 L3.16102842,21.3247632 L5.97564276,31.8903924 L9.37483085,21.3247632 L12.4709066,21.3247632 L15.8917456,31.9336942 Z M25.4181326,28.9891746 C25.4181326,32.4533153 27.8430311,34.0987821 30.202977,34.0987821 C32.5845737,34.0987821 35.0094723,32.4533153 35.0094723,28.9891746 C35.0094723,25.5250338 32.5845737,23.879567 30.202977,23.879567 C27.8430311,23.879567 25.4181326,25.5250338 25.4181326,28.9891746 Z M22.3220568,29.0108254 C22.3220568,24.052774 26.0460081,21 30.202977,21 C34.3815968,21 38.105548,24.052774 38.105548,29.0108254 C38.105548,33.947226 34.3815968,37 30.202977,37 C26.0460081,37 22.3220568,33.947226 22.3220568,29.0108254 Z M48.2814614,36.6752368 L45.2719892,30.7645467 L43.7131258,30.7645467 L43.7131258,36.6752368 L40.7036536,36.6752368 L40.7036536,21.3247632 L46.7009472,21.3247632 C49.6887686,21.3247632 51.594046,23.3815968 51.594046,26.0446549 C51.594046,28.188092 50.338295,29.811908 48.3247632,30.3964817 L51.6156969,36.6752368 L48.2814614,36.6752368 Z M43.7131258,28.188092 L46.1380244,28.188092 C47.6535859,28.188092 48.541272,27.3220568 48.541272,26.0663058 C48.541272,24.767253 47.6535859,23.9228687 46.1380244,23.9228687 L43.7131258,23.9228687 L43.7131258,28.188092 Z M57.2232747,33.9039242 L59.6048714,33.9039242 C62.1163735,33.9039242 64.2165088,32.3450609 64.2165088,29.0108254 C64.2165088,25.67659 62.1380244,24.0960758 59.6265223,24.0960758 L57.2232747,24.0960758 L57.2232747,33.9039242 Z M59.7131258,36.6752368 L54.2354533,36.6752368 L54.2354533,21.3247632 L59.7347767,21.3247632 C64.1082544,21.3247632 67.3125846,24.1610284 67.3125846,29.0108254 C67.3125846,33.8606225 64.0866035,36.6752368 59.7131258,36.6752368 Z" id="HeadWord" fill="#FFFFFF"></path>
                    <path d="M12.6874154,15.6752368 L9.67794317,15.6752368 L9.67794317,9.30987821 L2.98782138,9.30987821 L2.98782138,15.6752368 L0,15.6752368 L0,0.324763194 L2.98782138,0.324763194 L2.98782138,6.49526387 L9.67794317,6.49526387 L9.67794317,0.324763194 L12.6874154,0.324763194 L12.6874154,15.6752368 Z M25.8078484,15.6752368 L16.1948579,15.6752368 L16.1948579,0.324763194 L25.8078484,0.324763194 L25.8078484,3.13937754 L19.1826793,3.13937754 L19.1826793,6.64682003 L25.1799729,6.64682003 L25.1799729,9.30987821 L19.1826793,9.30987821 L19.1826793,12.8606225 L25.8078484,12.8606225 L25.8078484,15.6752368 Z M39.2097429,15.6752368 L37.932341,12.1677943 L31.6968877,12.1677943 L30.4194858,15.6752368 L27.2584574,15.6752368 L33.1474966,0.324763194 L36.6116373,0.324763194 L42.4573748,15.6752368 L39.2097429,15.6752368 Z M34.8146143,3.63734777 L32.6928281,9.43978349 L36.9364005,9.43978349 L34.8146143,3.63734777 Z M49.9052774,15.6752368 L44.4276049,15.6752368 L44.4276049,0.324763194 L49.9269283,0.324763194 C54.300406,0.324763194 57.5047361,3.16102842 57.5047361,8.01082544 C57.5047361,12.8606225 54.2787551,15.6752368 49.9052774,15.6752368 Z M47.4154263,12.9039242 L49.797023,12.9039242 C52.308525,12.9039242 54.4086604,11.3450609 54.4086604,8.01082544 C54.4086604,4.67658999 52.3301759,3.09607578 49.8186739,3.09607578 L47.4154263,3.09607578 L47.4154263,12.9039242 Z" id="Path" fill="#FFFFFF"></path>
                    <circle id="Oval-4" fill-opacity="0.297356205" fill="#000000" cx="62.5" cy="13.5" r="2.5"></circle>
                </g>
            </g>
        </g>
    </g>
</svg>