<svg xmlns="http://www.w3.org/2000/svg" width="196.185" height="24" viewBox="0 0 196.185 24">
  <defs>
    <style>
      .cls-1 {
        fill: #548fff;
      }
    </style>
  </defs>
  <g id="damac-properties-seeklogo.com" transform="translate(-40.1 -258.9)">
    <path id="Path_1" data-name="Path 1" class="cls-1" d="M221.122,254.129l.1-.2h-17.2a25.475,25.475,0,0,0-12.948,3.106,17.835,17.835,0,0,0-7.684,8.73,10.921,10.921,0,0,0-.85,6.507,6.264,6.264,0,0,0,3.793,4.414c1.864.817,4.97,1.21,9.351,1.21h15.531l1.537-3.793h-8.73c-4.218,0-7.03-.556-8.436-1.635-1.537-1.177-1.373-3.891-.163-6.768,2.093-4.97,6.441-8.076,12.49-8.076h6.768l-1.569,3.728h5.166l3.008-7.193h-.163Zm-60.229,14.158,10.463-10.169,2.158,10.169Zm-88.97.033,10.2-9.744,1.831,9.744Zm98.55-14.42h0l-6.376.033-24.523,22.954,9.58-22.921h-10.5l-12.687,9.94-6.54,5.362h-.294l3.074-7.815-3.76-7.52H107.89l-9.58,22.954-5.559-22.954H81.176L55.639,277.867h6.376l6.54-6.245H84.642l1.275,6.245h17.1l6.18-14.812a25.174,25.174,0,0,0,.916-2.55,6.463,6.463,0,0,0,.621,2.452l5.428,12.36h.916l15.564-12.294a30.722,30.722,0,0,0,2.649-2.518q-.883,1.668-1.275,2.55l-6.18,14.812h23.183l6.441-6.278h16.708l1.341,6.278h5.886L175.672,253.9ZM58.484,272.243a19.369,19.369,0,0,0,4.578-6.507q2.354-5.591-.392-8.73c-1.831-2.06-5.3-3.106-10.365-3.106H35.138l-1.569,3.76H45.405c6.049,0,7.782,3.008,5.689,7.978-1.21,2.877-2.256,5.526-4.774,6.7-2.289,1.079-4.676,1.406-8.894,1.406h-5.46l4.087-9.678H30.887l-5.787,13.8H40.664a35.1,35.1,0,0,0,10.365-1.21,19.718,19.718,0,0,0,7.455-4.414" transform="translate(15 5)"/>
  </g>
</svg>
