<svg xmlns="http://www.w3.org/2000/svg" width="56.175" height="48" viewBox="0 0 56.175 48">
  <defs>
    <style>
      .cls-1 {
        fill: #548fff;
      }
    </style>
  </defs>
  <g id="business-and-finance" transform="translate(0 -0.031)">
    <path id="Path_18" data-name="Path 18" class="cls-1" d="M100.686,85.981h13.473a.819.819,0,0,0,0-1.637H100.686a.819.819,0,1,0,0,1.637Zm0,0" transform="translate(-87.674 -73.748)"/>
    <path id="Path_19" data-name="Path 19" class="cls-1" d="M160.039,130.211h-8.431a.819.819,0,1,0,0,1.637h8.431a.819.819,0,1,0,0-1.637Zm0,0" transform="translate(-132.164 -113.868)"/>
    <path id="Path_20" data-name="Path 20" class="cls-1" d="M100.686,131.848h3.667a.819.819,0,1,0,0-1.637h-3.667a.819.819,0,1,0,0,1.637Zm0,0" transform="translate(-87.421 -113.868)"/>
    <path id="Path_21" data-name="Path 21" class="cls-1" d="M228.6,85.162a.819.819,0,0,0-.819-.819h-4.561a.819.819,0,0,0,0,1.637h4.561A.818.818,0,0,0,228.6,85.162Zm0,0" transform="translate(-194.732 -73.748)"/>
    <path id="Path_22" data-name="Path 22" class="cls-1" d="M54.164,17.039H39.84V14.1h8.042a.754.754,0,0,0,.754-.754V5.183A5.158,5.158,0,0,0,43.484.031c-.084,0-.168,0-.251.007V.031H13.12A5.8,5.8,0,0,0,7.34,5.754L7.085,34.639H.754A.754.754,0,0,0,0,35.393v4.671a7.906,7.906,0,0,0,7.481,7.958v.008h24.11v-.012c.145.008.291.013.438.013a7.9,7.9,0,0,0,7.811-7.967V35.3H54.164a2.013,2.013,0,0,0,2.01-2.01V19.049A2.013,2.013,0,0,0,54.164,17.039Zm-10.68-15.5a3.648,3.648,0,0,1,3.644,3.644V12.6H39.84V5.183A3.648,3.648,0,0,1,43.484,1.539ZM7.811,46.522a6.389,6.389,0,0,1-6.3-6.458V36.147H24.214v3.917a8.008,8.008,0,0,0,3.247,6.458Zm30.522-6.458a6.307,6.307,0,1,1-12.61,0V35.393a.754.754,0,0,0-.754-.754H8.593L8.848,5.768A4.286,4.286,0,0,1,13.12,1.539H39.846a5.139,5.139,0,0,0-1.514,3.644V17.039H31.547a2.013,2.013,0,0,0-2.01,2.01V33.29a2.013,2.013,0,0,0,2.01,2.01h6.785ZM54.667,33.29a.5.5,0,0,1-.5.5H31.547a.5.5,0,0,1-.5-.5V24.861H54.667Zm0-9.936H31.044v-1.07H54.667Zm0-2.577H31.044V19.049a.5.5,0,0,1,.5-.5H54.164a.5.5,0,0,1,.5.5Zm0,0"/>
    <path id="Path_23" data-name="Path 23" class="cls-1" d="M360.966,217.958a3.338,3.338,0,1,0-3.1-2.09A3.326,3.326,0,0,0,360.966,217.958Zm2.877-5.03a1.7,1.7,0,0,1,0,3.386A3.336,3.336,0,0,0,363.842,212.928Zm-2.877-.008a1.693,1.693,0,1,1-1.2.5A1.7,1.7,0,0,1,360.966,212.92Zm0,0" transform="translate(-313.657 -185.042)"/>
    <path id="Path_24" data-name="Path 24" class="cls-1" d="M112.475,163.428l-1.564-1.139v-1.768a.819.819,0,0,0-1.637,0v.576l-3.621-2.636a.818.818,0,0,0-.963,0l-6.822,4.966a.819.819,0,0,0,.481,1.481h1.18v7.239a.819.819,0,0,0,.819.819h9.648a.819.819,0,0,0,.819-.819v-7.239h1.18a.819.819,0,0,0,.482-1.481Zm-3.3.662v7.239h-8.01V164.09a.82.82,0,0,0-.434-.723l4.439-3.231,4.439,3.232A.819.819,0,0,0,109.176,164.09Zm0,0" transform="translate(-85.626 -139.055)"/>
  </g>
</svg>
