<?xml version="1.0" encoding="UTF-8"?>
<svg width="64px" height="64px" viewBox="0 0 64 64" version="1.1" xmlns="http://www.w3.org/2000/svg" xmlns:xlink="http://www.w3.org/1999/xlink">
    <!-- Generator: Sketch 51.2 (57519) - http://www.bohemiancoding.com/sketch -->
    <title>certificate</title>
    <desc>Created with Sketch.</desc>
    <defs></defs>
    <g id="Page-1" stroke="none" stroke-width="1" fill="none" fill-rule="evenodd">
        <g id="Desktop-HD-ver.-2.4" transform="translate(-485.000000, -3222.000000)" fill-rule="nonzero">
            <g id="Group-12-Copy" transform="translate(485.000000, 3222.000000)">
                <g id="certificate">
                    <path d="M56.0005,11.625 C56.690875,11.625 57.2505,11.065375 57.2505,10.375 L57.2505,3.75 C57.2505,1.68225 55.56825,0 53.5005,0 L3.7505,0 C1.68275,0 0.0005,1.68225 0.0005,3.75 L0.0005,60.25 C0.0005,62.31775 1.68275,64 3.7505,64 L53.5005,64 C55.56825,64 57.2505,62.31775 57.2505,60.25 L57.2505,56.75 C57.2505,56.059625 56.690875,55.5 56.0005,55.5 C55.310125,55.5 54.7505,56.059625 54.7505,56.75 L54.7505,60.25 C54.7505,60.93925 54.18975,61.5 53.5005,61.5 L3.7505,61.5 C3.06125,61.5 2.5005,60.93925 2.5005,60.25 L2.5005,3.75 C2.5005,3.06075 3.06125,2.5 3.7505,2.5 L53.5005,2.5 C54.18975,2.5 54.7505,3.06075 54.7505,3.75 L54.7505,10.375 C54.7505,11.065375 55.310125,11.625 56.0005,11.625 Z" id="Shape" fill="#44B4E1"></path>
                    <path d="M50.00125,6 L7.24975,6 C6.559375,6 5.99975,6.559625 5.99975,7.25 L5.99975,33.375 C5.99975,34.065375 6.559375,34.625 7.24975,34.625 C7.940125,34.625 8.49975,34.065375 8.49975,33.375 L8.49975,8.5 L48.75125,8.5 L48.75125,10.5 C48.75125,11.190375 49.311,11.75 50.00125,11.75 C50.691625,11.75 51.25125,11.190375 51.25125,10.5 L51.25125,7.25 C51.25125,6.559625 50.691625,6 50.00125,6 Z" id="Shape" fill="#44B4E1"></path>
                    <path d="M8.133,37.11625 C7.9005,36.88375 7.57925,36.75 7.24925,36.75 C6.9205,36.75 6.598,36.88375 6.3655,37.11625 C6.133,37.34875 5.99925,37.67125 5.99925,38 C5.99925,38.32875 6.133,38.65125 6.3655,38.88375 C6.598,39.11625 6.9205,39.25 7.24925,39.25 C7.57925,39.25 7.9005,39.11625 8.133,38.88375 C8.36675,38.65125 8.49925,38.32875 8.49925,38 C8.49925,37.67125 8.36675,37.34875 8.133,37.11625 Z" id="Shape" fill="#44B4E1"></path>
                    <path d="M50.00125,52.75 C49.310875,52.75 48.75125,53.309625 48.75125,54 L48.75125,55.5 L8.49975,55.5 L8.49975,42.8125 C8.49975,42.122125 7.940125,41.5625 7.24975,41.5625 C6.559375,41.5625 5.99975,42.122125 5.99975,42.8125 L5.99975,56.75 C5.99975,57.440375 6.559375,58 7.24975,58 L50.00125,58 C50.691625,58 51.25125,57.440375 51.25125,56.75 L51.25125,54 C51.25125,53.309625 50.691625,52.75 50.00125,52.75 Z" id="Shape" fill="#44B4E1"></path>
                    <path d="M38.7385,44.167 C38.250375,43.67875 37.459,43.67875 36.97075,44.166875 L34.50025,46.6375 L32.964625,45.10175 C31.995,44.13225 30.417625,44.13225 29.448,45.10175 L28.44875,46.101 C27.960625,46.589125 27.960625,47.380625 28.44875,47.868875 C28.936875,48.357 29.728375,48.357 30.216625,47.868875 L31.206375,46.879125 L32.742,48.414875 C33.22675,48.899625 33.8635,49.142 34.50025,49.142 C35.137,49.142 35.77375,48.899625 36.2585,48.414875 L38.7385,45.934875 C39.226625,45.44675 39.226625,44.65525 38.7385,44.167 Z" id="Shape" fill="#44B4E1"></path>
                    <path d="M63.425,26.22275 C63.975875,25.363375 64.140375,24.304875 63.876125,23.318875 C63.611875,22.332875 62.940375,21.4985 62.0335,21.02975 C61.64025,20.8265 61.3995,20.4095 61.420125,19.967375 C61.4675,18.947625 61.08075,17.948875 60.359,17.227 C59.63725,16.50525 58.63875,16.117875 57.618625,16.165875 C57.174375,16.187375 56.7595,15.945625 56.55625,15.5525 C56.0875,14.64575 55.253125,13.974125 54.267125,13.709875 C53.28075,13.4455 52.222625,13.610125 51.363375,14.161 C50.99075,14.4 50.50925,14.399875 50.13675,14.161 C49.277375,13.61 48.219125,13.445625 47.233,13.709875 C46.247,13.974125 45.412625,14.64575 44.943875,15.5525 C44.740625,15.94575 44.3225,16.185875 43.8815,16.165875 C42.861375,16.11825 41.863,16.50525 41.14125,17.227 C40.419375,17.948875 40.032625,18.947625 40.08,19.96725 C40.100625,20.4095 39.85975,20.8265 39.466625,21.02975 C38.559875,21.4985 37.88825,22.33275 37.624,23.318875 C37.497875,23.78925 37.4705,24.276125 37.535125,24.75 L15.722625,24.75 C15.03225,24.75 14.472625,25.309625 14.472625,26 C14.472625,26.690375 15.03225,27.25 15.722625,27.25 L38.17375,27.25 C38.146875,27.318625 38.11575,27.386 38.075,27.4495 C37.524125,28.308875 37.359625,29.367375 37.623875,30.353375 C37.660125,30.48875 37.70475,30.621 37.756,30.75 L15.72225,30.75 C15.031875,30.75 14.47225,31.309625 14.47225,32 C14.47225,32.690375 15.031875,33.25 15.72225,33.25 L40.005375,33.25 C40.05975,33.392875 40.087,33.547 40.079625,33.704875 C40.03225,34.724625 40.419,35.723375 41.140875,36.44525 C41.862625,37.167 42.861,37.5545 43.881125,37.506375 C44.32275,37.48475 44.74025,37.7265 44.9435,38.11975 C45.093625,38.41025 45.28175,38.676125 45.499875,38.91275 L45.499875,50.586875 C45.499875,51.091875 45.80375,51.54725 46.27,51.741125 C46.736125,51.935 47.273375,51.82925 47.6315,51.473 L50.749875,48.370875 L53.86825,51.473 C54.10725,51.71075 54.425875,51.836875 54.750125,51.836875 C54.911625,51.836875 55.074625,51.8055 55.22975,51.741 C55.696,51.547125 55.999875,51.09175 55.999875,50.58675 L55.999875,38.912625 C56.218,38.676125 56.406125,38.410125 56.55625,38.119625 C56.7595,37.726375 57.177,37.486125 57.618625,37.50625 C58.639375,37.5545 59.637125,37.167 60.358875,36.445125 C61.08075,35.72325 61.4675,34.7245 61.420125,33.70475 C61.3995,33.262625 61.640375,32.845625 62.0335,32.642375 C62.94025,32.173625 63.611875,31.339375 63.876125,30.35325 C64.140375,29.367125 63.975875,28.30875 63.425,27.44925 C63.186,27.076875 63.186,26.595375 63.425,26.22275 Z M53.499875,47.58025 L51.631375,45.7215 C51.14375,45.236375 50.355875,45.236375 49.86825,45.7215 L47.999875,47.58025 L47.999875,40.08125 C48.74775,40.1165 49.49725,39.921 50.136625,39.51125 C50.50925,39.27225 50.99075,39.272375 51.36325,39.51125 C51.953625,39.88975 52.637875,40.085875 53.32825,40.085875 C53.3855,40.085875 53.442625,40.083 53.499875,40.08025 L53.499875,47.58025 Z M61.46125,29.706375 C61.3775,30.019 61.172875,30.273125 60.885375,30.42175 C59.627375,31.072125 58.856875,32.406375 58.92275,33.821125 C58.937875,34.1445 58.82,34.448625 58.591125,34.677625 C58.36225,34.9065 58.058125,35.024 57.73475,35.00925 C56.31925,34.94375 54.98575,35.71375 54.335375,36.971875 C54.18675,37.2595 53.932625,37.464 53.619875,37.54775 C53.307375,37.631375 52.984875,37.5815 52.7125,37.40675 C52.11625,37.0245 51.433125,36.8335 50.74975,36.8335 C50.066625,36.8335 49.38325,37.024625 48.787125,37.40675 C48.514625,37.581375 48.19225,37.631375 47.879625,37.54775 C47.566875,37.464 47.312875,37.259375 47.164125,36.971875 C46.51375,35.713875 45.1805,34.943125 43.76475,35.00925 C43.442125,35.024125 43.13725,34.9065 42.908375,34.677625 C42.679375,34.448625 42.561625,34.1445 42.57675,33.821 C42.623125,32.8225 42.2515,31.86525 41.587375,31.159125 C41.567875,31.13775 41.548,31.11675 41.527,31.09675 C41.26325,30.829375 40.957625,30.599375 40.614125,30.42175 C40.326625,30.273125 40.122125,30.019125 40.038375,29.706375 C39.954625,29.393625 40.004625,29.07125 40.179375,28.798875 C40.94375,27.606625 40.94375,26.065875 40.179375,24.873625 C40.00475,24.601125 39.954625,24.27875 40.038375,23.966 C40.122125,23.653375 40.32675,23.39925 40.61425,23.250625 C41.87225,22.60025 42.642625,21.266 42.576875,19.85125 C42.56175,19.527875 42.679625,19.22375 42.9085,18.99475 C43.137375,18.76575 43.442125,18.64825 43.764875,18.663125 C45.1805,18.72875 46.514,17.958625 47.16425,16.7005 C47.312875,16.412875 47.567,16.208375 47.87975,16.124625 C48.192375,16.041 48.51475,16.090875 48.787125,16.265625 C49.9795,17.030125 51.520375,17.030125 52.712375,16.265625 C52.984875,16.091 53.307125,16.04075 53.619875,16.124625 C53.932625,16.208375 54.186625,16.413 54.335375,16.7005 C54.98575,17.9585 56.319875,18.729125 57.73475,18.663125 C58.05825,18.648375 58.36225,18.76575 58.591125,18.99475 C58.820125,19.22375 58.937875,19.527875 58.92275,19.85125 C58.857,21.265875 59.62725,22.60025 60.8855,23.250625 C61.173,23.39925 61.3775,23.65325 61.46125,23.966 C61.545,24.27875 61.495,24.601125 61.32025,24.8735 C60.555875,26.06575 60.555875,27.6065 61.32025,28.79875 C61.495,29.07125 61.545125,29.393625 61.46125,29.706375 Z" id="Shape" fill="#B6C1E5"></path>
                    <path d="M56.6945,23.43575 C56.206375,22.947625 55.414875,22.947625 54.92675,23.43575 L50.777875,27.58475 L49.12625,25.933125 C48.638125,25.445 47.846625,25.445 47.358375,25.933125 C46.87025,26.42125 46.87025,27.21275 47.358375,27.701 L49.893875,30.2365 C50.138,30.480625 50.457875,30.602625 50.77775,30.602625 C51.097625,30.602625 51.417625,30.480625 51.661625,30.2365 L56.6945,25.203625 C57.182625,24.7155 57.182625,23.924 56.6945,23.43575 Z" id="Shape" fill="#FF7A00"></path>
                    <path d="M15.25925,15.11625 C15.02675,14.88375 14.70425,14.75 14.3755,14.75 C14.04675,14.75 13.72425,14.88375 13.49175,15.11625 C13.25925,15.34875 13.1255,15.67125 13.1255,16 C13.1255,16.32875 13.25925,16.65125 13.49175,16.88375 C13.72425,17.11625 14.04675,17.25 14.3755,17.25 C14.70425,17.25 15.02675,17.11625 15.25925,16.88375 C15.49175,16.65125 15.6255,16.32875 15.6255,16 C15.6255,15.67125 15.49175,15.34875 15.25925,15.11625 Z" id="Shape" fill="#44B4E1"></path>
                    <path d="M25.124625,14.75 L19.04125,14.75 C18.350875,14.75 17.79125,15.309625 17.79125,16 C17.79125,16.690375 18.350875,17.25 19.04125,17.25 L25.124625,17.25 C25.815,17.25 26.374625,16.690375 26.374625,16 C26.374625,15.309625 25.815,14.75 25.124625,14.75 Z" id="Shape" fill="#44B4E1"></path>
                    <path d="M37.85475,36.75 L23.5645,36.75 C22.874125,36.75 22.3145,37.309625 22.3145,38 C22.3145,38.690375 22.874125,39.25 23.5645,39.25 L37.854625,39.25 C38.545,39.25 39.104625,38.690375 39.104625,38 C39.104625,37.309625 38.545125,36.75 37.85475,36.75 Z" id="Shape" fill="#44B4E1"></path>
                </g>
            </g>
        </g>
    </g>
</svg>