<?xml version="1.0" encoding="UTF-8"?>
<svg width="64px" height="64px" viewBox="0 0 64 64" version="1.1" xmlns="http://www.w3.org/2000/svg" xmlns:xlink="http://www.w3.org/1999/xlink">
    <!-- Generator: Sketch 51.2 (57519) - http://www.bohemiancoding.com/sketch -->
    <title>hired</title>
    <desc>Created with Sketch.</desc>
    <defs></defs>
    <g id="Page-1" stroke="none" stroke-width="1" fill="none" fill-rule="evenodd">
        <g id="Desktop-HD-ver.-2.4" transform="translate(-131.000000, -3500.000000)" fill-rule="nonzero">
            <g id="Group-12-Copy-2" transform="translate(131.000000, 3500.000000)">
                <g id="hired">
                    <path d="M57.168125,50.4866878 C57.854125,49.5483122 58.26,48.3967481 58.26,47.1526332 L58.26,39.7176396 C58.26,39.0342735 57.70025,38.4803299 57.01,38.4803299 L51.4235,38.4803299 C48.841,38.4803299 46.74,40.56 46.74,43.1162817 L46.74,47.1526332 C46.74,48.3960057 47.145375,49.5467037 47.8305,50.4848319 C46.976,50.6220495 46.153875,50.8930203 45.387125,51.2897018 C43.650375,48.7245114 40.805,46.9554061 37.53525,46.656967 C37.5225,46.6533788 37.5095,46.6507805 37.496625,46.6476872 C38.6665,45.3545749 39.379625,43.6485723 39.379625,41.7802348 L39.379625,31.6751269 C39.379625,30.9917608 38.819875,30.4378173 38.129625,30.4378173 L30.536875,30.4378173 C27.2745,30.4378173 24.620375,33.0649968 24.620375,36.2942513 L24.620375,41.780111 C24.620375,43.6484486 25.3335,45.3544511 26.503375,46.6475635 C26.4905,46.6506567 26.4775,46.6533788 26.46475,46.6568433 C23.194625,46.9552824 20.349125,48.7246352 18.6125,51.2901967 C17.8455,50.893639 17.02325,50.6224207 16.169125,50.485203 C16.854375,49.5470749 17.26,48.3961294 17.26,47.1526332 L17.26,39.7176396 C17.26,39.0342735 16.70025,38.4803299 16.01,38.4803299 L10.4235,38.4803299 C7.841,38.4803299 5.74,40.56 5.74,43.1162817 L5.74,47.1526332 C5.74,48.3968718 6.145875,49.5483122 6.831875,50.4866878 C2.96275,51.1126428 0,54.4433566 0,58.4474143 L0,62.1129442 C0,62.7963103 0.55975,63.3502538 1.25,63.3502538 L62.75,63.3502538 C63.44025,63.3502538 64,62.7963103 64,62.1129442 L64,58.4474143 C64,54.4433566 61.03725,51.1126428 57.168125,50.4866878 Z M8.24,43.1162817 C8.24,41.9245051 9.2195,40.9549492 10.4235,40.9549492 L14.76,40.9549492 L14.76,42.4618687 C14.76,43.20079 14.15275,43.801875 13.406375,43.801875 L8.24,43.801875 L8.24,43.1162817 Z M8.24,46.2763706 L13.406375,46.2763706 C13.882625,46.2763706 14.338625,46.1898826 14.76,46.0327443 L14.76,47.1526332 C14.76,48.9318845 13.297625,50.3795368 11.5,50.3795368 C9.702375,50.3795368 8.24,48.9318845 8.24,47.1526332 L8.24,46.2763706 Z M12.305875,52.8541561 L11.5,53.6518496 L10.694125,52.8541561 L12.305875,52.8541561 Z M16.819,57.1310406 L16.819,60.8756345 L2.5,60.8756345 L2.5,58.4474143 C2.5,55.6722525 4.552875,53.3636802 7.234125,52.9288896 L10.616125,56.2765546 C10.850625,56.5085501 11.1685,56.6389626 11.5,56.6389626 C11.8315,56.6389626 12.149375,56.5085501 12.383875,56.2765546 L15.766875,52.927776 C16.364375,53.0240387 16.939,53.2147081 17.4745,53.4935977 C17.051,54.6277157 16.819,55.8530235 16.819,57.1310406 Z M32.000125,46.6103204 C29.3095,46.6103204 27.1205,44.4435438 27.1205,41.7802348 L27.1205,40.1448826 L34.591,40.1448826 C35.419375,40.1448826 36.199375,39.9354061 36.87975,39.5674302 L36.87975,41.7802348 C36.87975,44.4435438 34.69075,46.6103204 32.000125,46.6103204 Z M34.179,49.084816 L32,51.2416942 L29.821,49.084816 L34.179,49.084816 Z M27.12025,36.2942513 L27.120375,36.2942513 C27.120375,34.4295019 28.653,32.9124365 30.536875,32.9124365 L36.879625,32.9124365 L36.879625,35.4048731 C36.879625,36.6540609 35.852875,37.6703871 34.590875,37.6703871 L27.12025,37.6703871 L27.12025,36.2942513 Z M44.680875,60.8756345 L42.25,60.8756345 L21.75,60.8756345 L19.319125,60.8756345 L19.319125,58.4010152 L27.458375,58.4010152 C28.148625,58.4010152 28.708375,57.8470717 28.708375,57.1637056 C28.708375,56.4803395 28.148625,55.9263959 27.458375,55.9263959 L19.4105,55.9263959 C19.94625,52.4098382 22.79,49.633934 26.360375,49.1589308 L31.116125,53.8663991 C31.36025,54.1080457 31.680125,54.2288071 32,54.2288071 C32.319875,54.2288071 32.63975,54.1080457 32.883875,53.8663991 L37.639625,49.1589308 C41.609125,49.6870146 44.680875,53.0595495 44.680875,57.1310406 L44.680875,60.8756345 Z M49.24,43.1162817 C49.24,41.9245051 50.2195,40.9549492 51.4235,40.9549492 L55.76,40.9549492 L55.76,42.4618687 C55.76,43.20079 55.15275,43.801875 54.406375,43.801875 L49.24,43.801875 L49.24,43.1162817 Z M49.24,46.2763706 L54.406375,46.2763706 C54.882625,46.2763706 55.338625,46.1898826 55.76,46.0327443 L55.76,47.1526332 C55.76,48.9318845 54.297625,50.3795368 52.5,50.3795368 C50.702375,50.3795368 49.24,48.9318845 49.24,47.1526332 L49.24,46.2763706 Z M53.305875,52.8541561 L52.5,53.6518496 L51.694125,52.8541561 L53.305875,52.8541561 Z M47.180875,60.8756345 L47.180875,57.1310406 C47.180875,55.8528997 46.948875,54.627592 46.52525,53.4933503 C47.0605,53.2142132 47.635,53.0236675 48.232625,52.9275286 L51.616,56.2765546 C51.8505,56.5085501 52.168375,56.6389626 52.499875,56.6389626 C52.831375,56.6389626 53.14925,56.5085501 53.38375,56.2765546 L56.76575,52.9288896 C59.447,53.3638039 61.499875,55.6722525 61.499875,58.4474143 L61.499875,60.8756345 L47.180875,60.8756345 Z" id="Shape" fill="#44B4E1"></path>
                    <path d="M38.1605,8.08433376 C37.67225,7.60116434 36.881,7.60116434 36.392625,8.08433376 L30.258875,14.1559359 L27.60725,11.531231 C27.119,11.0479378 26.32775,11.0479378 25.8395,11.5311072 C25.351375,12.0142766 25.351375,12.7977411 25.8395,13.2810343 L29.375,16.7806409 C29.6095,17.0126364 29.927375,17.1430489 30.258875,17.1430489 C30.590375,17.1430489 30.90825,17.0126364 31.14275,16.7806409 L38.1605,9.83413706 C38.648625,9.35096764 38.648625,8.56750317 38.1605,8.08433376 Z" id="Shape" fill="#FF7A00"></path>
                    <path d="M37.111,1.07299492 C36.480625,0.794723985 35.7415,1.07497462 35.46025,1.6990736 C35.179,2.32317259 35.46225,3.05479378 36.09275,3.33306472 C39.717625,4.93327728 42.059875,8.50501904 42.059875,12.4324873 C42.059875,17.9231726 37.547,22.3902316 32,22.3902316 C26.453,22.3902316 21.940125,17.9231726 21.940125,12.4324873 C21.940125,8.52531091 24.2655,4.96099302 27.86425,3.35211929 C28.493375,3.07087881 28.773125,2.33789657 28.488875,1.71515863 C28.20475,1.09229695 27.463875,0.815510787 26.83525,1.09675127 C22.343,3.10515228 19.44025,7.5546415 19.44025,12.4323636 C19.440125,19.2876777 25.0745,24.8648509 32,24.8648509 C38.9255,24.8648509 44.559875,19.2876777 44.559875,12.4324873 C44.559875,7.52940038 41.636,3.07050761 37.111,1.07299492 Z" id="Shape" fill="#B6C1E5"></path>
                    <path d="M32.04475,0 L32,0 C31.30975,0 30.75,0.553943528 30.75,1.23730964 C30.75,1.92067576 31.30975,2.47461929 32,2.47461929 L32.033,2.47461929 C32.726625,2.47461929 33.285625,1.92451142 33.288875,1.243125 C33.292125,0.559758883 32.735125,0.00321700508 32.04475,0 Z" id="Shape" fill="#B6C1E5"></path>
                    <path d="M32.883625,56.2889277 C32.65125,56.0587881 32.32875,55.9263959 32,55.9263959 C31.67125,55.9263959 31.34875,56.0587881 31.11625,56.2889277 C30.88375,56.5190673 30.75,56.8382931 30.75,57.1637056 C30.75,57.489118 30.883625,57.8083439 31.11625,58.0384835 C31.348875,58.2686231 31.67125,58.4010152 32,58.4010152 C32.32875,58.4010152 32.65125,58.2686231 32.883625,58.0384835 C33.116125,57.8083439 33.25,57.489118 33.25,57.1637056 C33.25,56.8382931 33.11625,56.5190673 32.883625,56.2889277 Z" id="Shape" fill="#44B4E1"></path>
                </g>
            </g>
        </g>
    </g>
</svg>