<?xml version="1.0" encoding="UTF-8"?>
<svg width="64px" height="64px" viewBox="0 0 64 64" version="1.1" xmlns="http://www.w3.org/2000/svg" xmlns:xlink="http://www.w3.org/1999/xlink">
    <!-- Generator: Sketch 51.2 (57519) - http://www.bohemiancoding.com/sketch -->
    <title>recruitment</title>
    <desc>Created with Sketch.</desc>
    <defs></defs>
    <g id="Page-1" stroke="none" stroke-width="1" fill="none" fill-rule="evenodd">
        <g id="Desktop-HD-ver.-2.4" transform="translate(-504.000000, -3500.000000)" fill-rule="nonzero">
            <g id="Group-12-Copy-3" transform="translate(504.000000, 3500.000000)">
                <g id="recruitment">
                    <path d="M57.090625,48.831125 C56.858125,48.598625 56.535625,48.464875 56.206875,48.464875 C55.878125,48.464875 55.555625,48.598625 55.323125,48.831125 C55.090625,49.063625 54.956875,49.386125 54.956875,49.714875 C54.956875,50.043625 55.090625,50.366125 55.323125,50.598625 C55.555625,50.831125 55.876875,50.964875 56.206875,50.964875 C56.535625,50.964875 56.858125,50.831125 57.090625,50.598625 C57.323125,50.366125 57.456875,50.043625 57.456875,49.714875 C57.456875,49.386125 57.323125,49.063625 57.090625,48.831125 Z" id="Shape" fill="#44B4E1"></path>
                    <path d="M62.949,54.689375 L60.316875,52.05725 C59.82875,51.569125 59.03725,51.569125 58.549125,52.05725 C58.061,52.545375 58.061,53.336875 58.549125,53.825 L61.18125,56.457125 C61.38475,56.660625 61.496875,56.93125 61.496875,57.219125 C61.496875,57.506875 61.38475,57.7775 61.18125,57.981125 L57.976625,61.18575 C57.556375,61.60575 56.87275,61.606 56.45275,61.18575 L44.895,49.628 L49.623625,44.899375 L52.053375,47.329125 C52.5415,47.81725 53.333,47.81725 53.821125,47.329125 C54.30925,46.841 54.30925,46.0495 53.821125,45.561375 L50.5075,42.247875 C50.019375,41.75975 49.227875,41.759875 48.73975,42.247875 L48.191875,42.79575 L44.735,39.338875 C47.732,35.245125 49.504375,30.201375 49.504375,24.750625 C49.50425,11.103 38.40125,0 24.753625,0 C11.106,0 0.003,11.103 0.003,24.750625 C0.003,38.39825 11.106,49.50125 24.753625,49.50125 C30.200375,49.50125 35.240875,47.731375 39.333,44.73825 L42.791125,48.196375 L42.24325,48.74425 C41.755125,49.232375 41.755125,50.023875 42.24325,50.512125 L54.685,62.953875 C55.3825,63.651375 56.2985,64.000125 57.214875,64 C58.130875,63.999875 59.04725,63.651125 59.74475,62.95375 L62.949375,59.749125 C63.625125,59.073375 63.99725,58.175 63.99725,57.21925 C63.99725,56.2635 63.62475,55.36525 62.949,54.689375 Z M24.7535,47.001 C12.484625,47.001 2.503,37.019375 2.503,24.750375 C2.503,12.481375 12.484625,2.499875 24.7535,2.499875 C37.022375,2.499875 47.004,12.4815 47.004,24.7505 C47.004,37.0195 37.022375,47.001 24.7535,47.001 Z M41.2845,43.15425 C41.938625,42.566 42.561375,41.94375 43.149875,41.289875 L46.423625,44.563625 L44.55875,46.4285 L41.2845,43.15425 Z" id="Shape" fill="#B6C1E5"></path>
                    <path d="M24.81975,6.25725 L24.753625,6.257125 C24.06325,6.257125 23.503625,6.81675 23.503625,7.507125 C23.503625,8.1975 24.063125,8.757125 24.7535,8.757125 L24.812375,8.75725 C25.50475,8.75725 26.064,8.2 26.066125,7.510875 C26.068125,6.8205 25.510125,6.25925 24.81975,6.25725 Z" id="Shape" fill="#FF7A00"></path>
                    <path d="M39.448125,13.520875 C37.043,10.377875 33.633625,8.050875 29.848125,6.96825 C29.184375,6.778375 28.4925,7.162625 28.302625,7.826375 C28.11275,8.490125 28.497,9.182 29.16075,9.371875 C35.9825,11.32275 40.746875,17.646875 40.746875,24.7505 C40.746875,29.099125 39.001625,33.047125 36.1755,35.933 C36.22525,35.798125 36.253875,35.653 36.253875,35.50075 L36.253875,32.813875 C36.253875,28.768625 33.291,25.40375 29.421875,24.77125 C30.107875,23.82325 30.51375,22.659875 30.51375,21.402875 L30.51375,13.8915 C30.51375,13.201125 29.954125,12.6415 29.26375,12.6415 L23.677125,12.6415 C21.0945,12.6415 18.9935,14.7425 18.9935,17.325125 L18.9935,21.403 C18.9935,22.66 19.399375,23.82325 20.085375,24.771375 C16.216125,25.40375 13.253375,28.768625 13.253375,32.814 L13.253375,35.500875 C13.253375,35.653 13.281875,35.79825 13.33175,35.933125 C10.50575,33.047125 8.760375,29.09925 8.760375,24.750625 C8.760375,17.705125 13.276125,11.56675 19.997,9.47625 C20.656125,9.271125 21.024375,8.5705 20.819375,7.911375 C20.61425,7.25225 19.91375,6.88375 19.2545,7.089 C15.568125,8.235625 12.2585,10.57825 9.934875,13.685125 C7.530875,16.899625 6.260125,20.726 6.260125,24.750625 C6.260125,34.947875 14.55625,43.244 24.7535,43.244 C34.95075,43.244 43.246875,34.947875 43.246875,24.750625 C43.246875,20.651375 41.93325,16.76825 39.448125,13.520875 Z M24.753625,24.663 C22.956125,24.663 21.493375,23.20075 21.493375,21.403 L21.493375,20.51775 L26.659875,20.51775 C27.136125,20.51775 27.592125,20.430375 28.013625,20.271625 L28.013625,21.402875 C28.01375,23.2005 26.551125,24.663 24.753625,24.663 Z M26.73875,27.163125 L24.7535,29.148375 L22.76825,27.163125 L26.73875,27.163125 Z M21.49325,17.32525 C21.493375,16.12125 22.472875,15.14175 23.676875,15.14175 L28.0135,15.14175 L28.0135,16.664125 C28.0135,17.410625 27.40625,18.017875 26.65975,18.017875 L21.49325,18.017875 L21.49325,17.32525 Z M15.753,32.814 L15.75325,32.814 C15.75325,30.3485 17.341,28.248 19.547375,27.478125 L23.8695,31.80025 C24.113625,32.04425 24.4335,32.166375 24.753375,32.166375 C25.07325,32.166375 25.39325,32.04425 25.63725,31.80025 L29.959375,27.478125 C32.165625,28.248 33.7535,30.3485 33.7535,32.814 L33.7535,34.25075 L15.753,34.25075 L15.753,32.814 Z M24.7535,40.74375 C20.679,40.74375 16.95625,39.211375 14.12925,36.69375 C14.247375,36.73075 14.373,36.75075 14.50325,36.75075 L35.00375,36.75075 C35.134,36.75075 35.259625,36.73075 35.37775,36.69375 C32.55075,39.2115 28.828,40.74375 24.7535,40.74375 Z" id="Shape" fill="#44B4E1"></path>
                </g>
            </g>
        </g>
    </g>
</svg>