<svg height="492pt" viewBox="0 -14 492 491" width="492pt" xmlns="http://www.w3.org/2000/svg"><path d="m251.453125 12.5h20v22.386719h-20zm0 0" fill="#d4e1f4"/><path d="m231.484375 361.042969c-.105469-.050781-.214844-.097657-.328125-.152344l-47.332031-20.199219v-29.242187c25.121093-16.007813 40.332031-43.730469 40.34375-73.515625v-5.738282c12.613281-4.851562 19.65625-18.320312 16.445312-31.449218-1.871093-7.847656-7.980469-13.988282-15.816406-15.898438v-26.265625c.015625-21.90625-8.09375-43.039062-22.757813-59.3125v-54.355469c.007813-7.726562 6.273438-13.992187 14-14h-20c-7.726562.007813-13.992187 6.273438-14 14v54.355469c14.667969 16.273438 22.777344 37.40625 22.761719 59.3125v26.269531c7.835938 1.910157 13.945313 8.050782 15.816407 15.898438 3.210937 13.128906-3.832032 26.597656-16.445313 31.449219v5.738281c-.011719 29.785156-15.222656 57.507812-40.34375 73.515625v29.242187l47.332031 20.199219c.113282.050781.222656.101563.328125.152344 12.0625 6.089844 21.140625 16.804687 25.167969 29.699219h20c-4.027344-12.898438-13.109375-23.613282-25.171875-29.703125zm0 0" fill="#d4e1f4"/><g fill="#0635c9"><path d="m176.039062 358.429688c3.316407 0 6-2.6875 6-6v-58.78125c0-3.3125-2.683593-6-6-6-3.3125 0-6 2.6875-6 6v58.78125c0 3.3125 2.6875 6 6 6zm0 0"/><path d="m466 18.917969h-33.414062v-12.417969c0-3.3125-2.6875-6-6-6h-181.132813c-3.3125 0-6 2.6875-6 6v12.417969h-43.414063c-14.355468.015625-25.984374 11.644531-26 26v57.546875c0 3.316406 2.683594 6 6 6 3.3125 0 6-2.683594 6-6v-57.550782c.007813-7.726562 6.269532-13.992187 14-14h43.414063v9.96875c0 3.3125 2.6875 6 6 6h181.132813c3.3125 0 6-2.6875 6-6v-9.964843h33.414062c7.730469.007812 13.992188 6.269531 14 14v331.828125c-.007812 7.730468-6.269531 13.992187-14 14h-233.960938c-3.3125 0-6 2.6875-6 6 0 3.316406 2.6875 6 6 6h233.960938c14.351562-.015625 25.984375-11.644532 26-26v-331.832032c-.015625-14.351562-11.648438-25.980468-26-25.996093zm-45.414062 15.96875h-169.132813v-22.386719h169.132813zm0 0"/><path d="m436.585938 197.550781h-43.867188c-3.316406 0-6 2.6875-6 6 0 3.316407 2.683594 6 6 6h43.867188c3.3125 0 6-2.683593 6-6 0-3.3125-2.6875-6-6-6zm0 0"/><path d="m346.15625 203.550781c0 3.316407 2.6875 6 6 6h14.714844c3.316406 0 6-2.683593 6-6 0-3.3125-2.683594-6-6-6h-14.714844c-3.3125 0-6 2.6875-6 6zm0 0"/><path d="m329.445312 197.550781h-94.234374c-3.3125 0-6 2.6875-6 6 0 3.316407 2.6875 6 6 6h94.234374c3.3125 0 6-2.683593 6-6 0-3.3125-2.6875-6-6-6zm0 0"/><path d="m436.585938 262.449219h-14.898438c-3.3125 0-6 2.683593-6 6 0 3.3125 2.6875 6 6 6h14.898438c3.3125 0 6-2.6875 6-6 0-3.316407-2.6875-6-6-6zm0 0"/><path d="m315.476562 268.449219c0 3.3125 2.6875 6 6 6h79.460938c3.3125 0 6-2.6875 6-6 0-3.316407-2.6875-6-6-6h-79.460938c-3.3125 0-6 2.683593-6 6zm0 0"/><path d="m300.4375 262.449219h-5.363281c-3.3125 0-6 2.683593-6 6 0 3.3125 2.6875 6 6 6h5.363281c3.3125 0 6-2.6875 6-6 0-3.316407-2.6875-6-6-6zm0 0"/><path d="m235.210938 274.449219h34.019531c3.3125 0 6-2.6875 6-6 0-3.316407-2.6875-6-6-6h-34.019531c-3.3125 0-6 2.683593-6 6 0 3.3125 2.6875 6 6 6zm0 0"/><path d="m436.585938 322.429688h-34.335938c-3.316406 0-6 2.683593-6 6 0 3.3125 2.683594 6 6 6h34.335938c3.3125 0 6-2.6875 6-6 0-3.316407-2.6875-6-6-6zm0 0"/><path d="m376.398438 322.429688c-3.3125 0-6 2.683593-6 6 0 3.3125 2.6875 6 6 6h4.3125c3.3125 0 6-2.6875 6-6 0-3.316407-2.6875-6-6-6zm0 0"/><path d="m326.898438 322.429688c-3.3125 0-6 2.683593-6 6 0 3.3125 2.6875 6 6 6h32.617187c3.3125 0 6-2.6875 6-6 0-3.316407-2.6875-6-6-6zm0 0"/><path d="m235.210938 334.429688h65.226562c3.3125 0 6-2.6875 6-6 0-3.316407-2.6875-6-6-6h-65.226562c-3.3125 0-6 2.683593-6 6 0 3.3125 2.6875 6 6 6zm0 0"/><path d="m316.601562 96.464844h-91.144531c-3.316406 0-6 2.6875-6 6v50c0 3.316406 2.683594 6 6 6h91.144531c3.3125 0 6-2.683594 6-6v-50c0-3.3125-2.6875-6-6-6zm-6 49.996094h-79.144531v-37.996094h79.144531zm0 0"/><path d="m436.585938 146.464844h-3.875c-3.3125 0-6 2.6875-6 6 0 3.316406 2.6875 6 6 6h3.875c3.3125 0 6-2.683594 6-6 0-3.3125-2.6875-6-6-6zm0 0"/><path d="m364.339844 158.464844h42.527344c3.3125 0 6-2.683594 6-6 0-3.3125-2.6875-6-6-6h-42.527344c-3.316406 0-6 2.6875-6 6 0 3.316406 2.683594 6 6 6zm0 0"/><path d="m436.585938 96.464844h-42.867188c-3.316406 0-6 2.6875-6 6 0 3.316406 2.683594 6 6 6h42.867188c3.3125 0 6-2.683594 6-6 0-3.3125-2.6875-6-6-6zm0 0"/><path d="m364.339844 108.464844h3.53125c3.316406 0 6-2.683594 6-6 0-3.3125-2.683594-6-6-6h-3.53125c-3.316406 0-6 2.6875-6 6 0 3.316406 2.683594 6 6 6zm0 0"/></g><path d="m238.769531 457.230469v-55.417969c0-.167969-.007812-.335938-.019531-.5-1.496094-17.242188-11.8125-32.480469-27.265625-40.269531-.105469-.054688-.214844-.101563-.328125-.152344l-47.332031-20.199219v-29.242187c25.121093-16.007813 40.332031-43.730469 40.34375-73.515625v-5.738282c12.613281-4.851562 19.65625-18.320312 16.445312-31.449218-1.871093-7.847656-7.980469-13.988282-15.816406-15.898438v-26.265625c0-49.074219-39.785156-88.855469-88.859375-88.855469s-88.855469 39.78125-88.855469 88.855469v26.894531c-6.890625 2.414063-12.082031 8.167969-13.777343 15.269532-3.210938 13.128906 3.832031 26.597656 16.445312 31.449218v5.738282c.023438 31.796875 17.335938 61.070312 45.195312 76.402344v26.355468l-47.332031 20.203125c-.113281.046875-.222656.097657-.328125.152344-15.453125 7.789063-25.769531 23.027344-27.2656248 40.265625-.0117187.167969-.0195312.332031-.0195312.5v55.421875c0 3.3125 2.6875 6 6 6h226.769531c3.3125 0 6-2.6875 6-6.003906zm-199.6875-298.648438c0-42.445312 34.410157-76.855469 76.855469-76.855469 42.449219 0 76.859375 34.410157 76.859375 76.855469v27.316407c-14.863281 1.609374-60.253906 4.035156-96.703125-20.132813 25.042969-3.339844 55.570312-11.027344 78.210938-28.386719 2.582031-2.03125 3.050781-5.761718 1.050781-8.367187-1.996094-2.609375-5.71875-3.125-8.351563-1.15625-41.1875 31.585937-114.769531 28.253906-115.5 28.21875-3.289062-.175781-6.101562 2.339843-6.300781 5.625l-1.800781 29.636719-3.914063-2.011719c-.203125-.105469-.351562-.296875-.398437-.519531zm2.667969 79.351563v-10.28125c0-2.914063-2.09375-5.40625-4.964844-5.910156-7.09375-1.234376-12.265625-7.398438-12.25-14.597657 0-1.195312.140625-2.382812.425782-3.542969.652343-2.890624 2.632812-5.296874 5.34375-6.492187 1.042968 1.1875 2.296874 2.164063 3.699218 2.890625l9.800782 5.03125c2.28125 1.171875 5 1.125 7.242187-.125 2.242187-1.246094 3.714844-3.535156 3.917969-6.09375 0-.039062.003906-.074219.007812-.113281l1.855469-30.484375c4.902344.050781 12.480469-.035156 21.691406-.675782 49 41.6875 118.355469 30.050782 121.324219 29.527344.621094-.113281 1.21875-.328125 1.773438-.628906 3.636718.75 6.503906 3.546875 7.34375 7.164062.976562 3.984376.257812 8.195313-1.984376 11.628907-2.238281 3.4375-5.800781 5.796875-9.839843 6.511719-2.871094.503906-4.964844 2.996093-4.964844 5.910156v10.28125c.097656 26.933594-14.214844 51.867187-37.523437 65.363281-23.3125 13.496094-52.058594 13.496094-75.367188 0-23.3125-13.496094-37.625-38.429687-37.527344-65.363281zm75.207031 87.210937c12 .011719 23.875-2.464843 34.867188-7.277343v21.539062c-20.785157 8.539062-44.09375 8.539062-64.878907 0v-19.585938c9.609376 3.53125 19.773438 5.332032 30.011719 5.324219zm109.8125 126.085938h-214.769531v-49.164063c1.207031-12.917968 8.941406-24.316406 20.5-30.210937l49.964844-21.324219c23.660156 9.699219 50.1875 9.699219 73.851562 0l49.960938 21.324219c11.5625 5.894531 19.296875 17.296875 20.5 30.214843zm0 0" fill="#1ae5be"/></svg>