<?xml version="1.0"?>
<svg xmlns="http://www.w3.org/2000/svg" id="Layer_1" data-name="Layer 1" viewBox="0 0 512 512" width="512" height="512"><title>Bill Payment 3</title><path d="M394,81.189A28.989,28.989,0,0,0,350,106v59h30V106A29.014,29.014,0,0,1,394,81.189Z" style="fill:#d4e1f4"/><path d="M74,383.6V352H44v31.6C44,411.939,66.969,435,94.628,435h30C96.969,435,74,411.939,74,383.6Z" style="fill:#d4e1f4"/><path d="M166.882,77h-30a33.929,33.929,0,0,0-34,33.445L100.859,340h30l2.025-229.555A33.929,33.929,0,0,1,166.882,77Z" style="fill:#d4e1f4"/><path d="M243.08,155a6,6,0,0,0-6-6H138.336a6,6,0,0,0,0,12H237.08A6,6,0,0,0,243.08,155Z" style="fill:#0635c9"/><path d="M257.05,201a6,6,0,0,0-6-6H189.256a6,6,0,1,0,0,12H251.05A6,6,0,0,0,257.05,201Z" style="fill:#0635c9"/><path d="M165.21,207a6,6,0,1,0,0-12H138.336a6,6,0,0,0,0,12Z" style="fill:#0635c9"/><path d="M379,65c-.671,0-2,.019-2,.051V65H136.882a45.968,45.968,0,0,0-46,45.332L88.859,340H38.467A6.788,6.788,0,0,0,32,346.423V383.6c0,34.063,27,61.926,60,63.337V447H284V446.9c1,.065,2.492.105,3.663.105C321.938,447,350,418.557,350,383.6V339.686c0-3.314-12-3.314-12,0V383.6c0,28.344-22.825,51.4-50.517,51.4C259.825,435,237,411.939,237,383.6V346.423c0-3.314-2.508-6.423-5.822-6.423H100.859l2.025-229.555a33.929,33.929,0,0,1,34-33.445h212.7A40.48,40.48,0,0,0,338,106V206.353c0,3.313,12,3.313,12,0V177h63.533c3.313,0,6.467-2.687,6.467-6V106A41.047,41.047,0,0,0,379,65ZM251.022,435H94.628C66.969,435,44,411.939,44,383.6V352H225v31.6A63.889,63.889,0,0,0,251.022,435ZM408,165H350V106a29,29,0,0,1,58,0Z" style="fill:#0635c9"/><path d="M294.3,161a6,6,0,0,0,0-12h-33.43a6,6,0,0,0,0,12Z" style="fill:#0635c9"/><path d="M153.336,262.724a7.008,7.008,0,0,1,7,7,6,6,0,0,0,6,6,5.86,5.86,0,0,0,5.832-6A18.6,18.6,0,0,0,159,251.71v-2.129a6,6,0,0,0-12,0v2.129a19.613,19.613,0,0,0-12.832,18.014,19.094,19.094,0,0,0,19.084,19,7,7,0,0,1,.159,14c-.032,0-.053,0-.086,0s-.059,0-.091,0a7,7,0,0,1-6.9-7,6,6,0,0,0-6-6,6.145,6.145,0,0,0-6.167,6A19.614,19.614,0,0,0,147,313.737v2.721a6,6,0,0,0,12,0v-2.721a18.6,18.6,0,0,0,13.168-18.013,18.95,18.95,0,0,0-18.916-19,6.973,6.973,0,0,1-6.958-7A7.044,7.044,0,0,1,153.336,262.724Z" style="fill:#0635c9"/><path d="M223.336,262.724a7.008,7.008,0,0,1,7,7,6,6,0,0,0,6,6,5.86,5.86,0,0,0,5.832-6A18.6,18.6,0,0,0,229,251.71v-2.129a6,6,0,0,0-12,0v2.129a19.613,19.613,0,0,0-12.832,18.014,19.094,19.094,0,0,0,19.084,19,7,7,0,0,1,.159,14c-.032,0-.053,0-.086,0s-.059,0-.091,0a7,7,0,0,1-6.9-7,6,6,0,0,0-6-6,6.145,6.145,0,0,0-6.167,6A19.614,19.614,0,0,0,217,313.737v2.721a6,6,0,1,0,12,0v-2.721a18.6,18.6,0,0,0,13.168-18.013,18.95,18.95,0,0,0-18.916-19,6.973,6.973,0,0,1-6.958-7A7.044,7.044,0,0,1,223.336,262.724Z" style="fill:#0635c9"/><path d="M480,216a16,16,0,0,0-16-16H284a16,16,0,0,0-16,16V329a16,16,0,0,0,16,16H464a16,16,0,0,0,16-16ZM280,242H468v9H280Zm3.533-30h180A4.742,4.742,0,0,1,468,216.353V230H280V216.353C280,214.146,281.327,212,283.533,212Zm180,122h-180c-2.206,0-3.533-2.108-3.533-4.314V263H468v66.686A4.707,4.707,0,0,1,463.533,334Z" style="fill:#1ae5be"/><path d="M434.558,276.25a24.4,24.4,0,0,0-10,2.141,24.462,24.462,0,1,0,0,44.64,24.46,24.46,0,1,0,10-46.781ZM402.1,300.712a12.46,12.46,0,1,1,12.461,12.461A12.476,12.476,0,0,1,402.1,300.712Zm33.542,12.406a24.453,24.453,0,0,0,0-24.813,12.453,12.453,0,0,1,0,24.813Z" style="fill:#1ae5be"/></svg>
