<?xml version="1.0"?>
<svg xmlns="http://www.w3.org/2000/svg" id="Layer_1" data-name="Layer 1" viewBox="0 0 512 512" width="512" height="512"><title>Travel</title><path d="M124.583,68.275,302.018,146.7a7,7,0,0,0,7.779-1.453l12.739-12.738L154.583,58.275c-24.219-10.706-38.374-16.314-47.655-7.095l-7.264,7.213C106.537,60.406,114.726,63.918,124.583,68.275Z" style="fill:#d4e1f4"/><path d="M183.111,448.211l-17.106-78.4a7,7,0,0,1,2.255-6.783L288.625,258.753l-3.03-3.767a7,7,0,0,0-10.038-.9L138.26,373.03a7,7,0,0,0-2.255,6.783L143.464,414l36.425,60.4,1.858-1.857c5.354-5.354,4.537-10.159,2-21.473Q183.431,449.666,183.111,448.211Z" style="fill:#d4e1f4"/><path d="M452.288,360.647,374.046,181.864a7,7,0,0,1,1.463-7.757l88.035-88.034c15.585-15.588,20.215-37.293,10.111-47.4-4.614-4.614-11.857-6.327-20.4-4.819a49.072,49.072,0,0,0-20.979,9.65,18.852,18.852,0,0,1,11.376,5.169c10.1,10.105,5.474,31.81-10.111,47.4l-88.035,88.034a7,7,0,0,0-1.463,7.757l78.242,178.783c1.19,2.719,2.377,5.337,3.523,7.866,1.259,2.776,2.408,5.34,3.439,7.735L452.541,415.2c1.99-1.95,4.36-4.366,6.787-7.055,9.23-10.226,5.592-19.538-3.517-39.628C454.665,365.984,453.478,363.366,452.288,360.647Z" style="fill:#d4e1f4"/><path d="M483.554,28.775c-7.936-7.937-19.56-11.026-32.728-8.706-12.256,2.163-24.5,8.845-34.469,18.817L333.29,121.953,160.242,45.47c-24-10.608-46.664-20.628-63.178-4.224L83.936,54.282A7,7,0,0,0,84.482,64.7L254.509,201.431,140.8,331.117,66.447,314.888c-.943-.206-1.868-.414-2.777-.618-11.514-2.586-23.421-5.26-34.437,5.757L24.658,324.6a11,11,0,0,0,2.078,17.187L97.03,384.372l-26.9,45.595a9,9,0,0,0,12.2,12.4l46.089-26.209,41.464,68.754a10.929,10.929,0,0,0,8.086,5.238,11.081,11.081,0,0,0,1.357.083,10.924,10.924,0,0,0,7.754-3.222l4.569-4.569c11.016-11.015,8.344-22.922,5.76-34.437-.2-.908-.411-1.833-.617-2.775l-16.22-74.337L309.237,259.418l137.12,170.427a7,7,0,0,0,10.046.895,171.352,171.352,0,0,0,13.318-13.219c15.764-17.464,7.544-35.594-1.159-54.789-1.123-2.475-2.284-5.037-3.449-7.7L388.788,180.628l84.656-84.656C494.755,74.657,499.291,44.513,483.554,28.775ZM375.509,174.107a7,7,0,0,0-1.463,7.757l78.242,178.783c1.19,2.719,2.377,5.337,3.523,7.866,9.109,20.09,12.747,29.4,3.517,39.628-2.427,2.689-4.8,5.1-6.787,7.055L315.6,244.986a7,7,0,0,0-10.038-.9L168.26,363.03a7,7,0,0,0-2.255,6.783l17.106,78.4q.318,1.455.635,2.856c2.538,11.314,3.355,16.119-2,21.473l-1.858,1.857-43.008-71.315a7,7,0,0,0-9.455-2.47l-35.7,20.3L112.6,385.527a7,7,0,0,0-2.4-9.544L37.262,331.8l1.87-1.87c5.356-5.355,10.16-4.536,21.471-2,.935.21,1.887.424,2.858.635l78.39,17.11a7,7,0,0,0,6.756-2.224L269.851,205.168a7,7,0,0,0-.876-10.07L99.356,58.7l7.572-7.519c9.281-9.219,23.436-3.611,47.655,7.095L332.018,136.7a7,7,0,0,0,7.779-1.453l86.459-86.459c7.96-7.959,17.549-13.261,27-14.929,8.54-1.508,15.783.2,20.4,4.819,10.1,10.105,5.474,31.81-10.111,47.4Z" style="fill:#0635c9"/></svg>
