<?xml version="1.0" encoding="UTF-8"?>
<svg width="41px" height="48px" viewBox="0 0 41 48" version="1.1" xmlns="http://www.w3.org/2000/svg" xmlns:xlink="http://www.w3.org/1999/xlink">
    <!-- Generator: Sketch 51.2 (57519) - http://www.bohemiancoding.com/sketch -->
    <title>man</title>
    <desc>Created with Sketch.</desc>
    <defs></defs>
    <g id="Page-1" stroke="none" stroke-width="1" fill="none" fill-rule="evenodd">
        <g id="Desktop-HD-ver.-2.4" transform="translate(-757.000000, -2056.000000)" fill-rule="nonzero">
            <g id="Group-8" transform="translate(135.000000, 1542.000000)">
                <g id="Group-16-Copy" transform="translate(572.000000, 454.000000)">
                    <g id="Group-7" transform="translate(50.000000, 60.000000)">
                        <g id="man">
                            <path d="M29.2561875,27.7251563 C29.1765937,27.7119375 29.0964375,27.7088438 29.0173125,27.7160625 C28.9077187,27.7131563 25.3125,27.7114688 25.3125,27.7114688 L25.3125,25.4926875 C28.11675,23.8239375 30,20.762625 30,17.2693125 L30,9.7974375 C30.498,8.888625 30.7816875,7.84640625 30.7816875,6.73903125 L30.7816875,0.9375 C30.7816875,0.4198125 30.3619688,0 29.8441875,0 L16.3905937,0 C12.7806562,0 9.84375,2.93690625 9.84375,6.54684375 L9.84375,8.45315625 C9.84375,9.55875 10.2305625,10.5752812 10.875,11.3761875 L10.875,17.2693125 C10.875,20.762625 12.75825,23.8239375 15.5625,25.4926875 L15.5625,27.7114688 C15.5625,27.7114688 11.96775,27.7131563 11.8584375,27.7160625 C11.7789375,27.70875 11.6983125,27.7118437 11.6183438,27.72525 C5.1613125,28.0235625 0,33.3695625 0,39.8989688 L0,47.0625 C0,47.5801875 0.41971875,48 0.9375,48 L39.9375,48 C40.4552812,48 40.875,47.5801875 40.875,47.0625 L40.875,39.8989688 C40.875,33.369375 35.7133125,28.0232813 29.2561875,27.7251563 Z M11.71875,8.45315625 L11.71875,6.54684375 C11.71875,3.97078125 13.8145313,1.875 16.3905938,1.875 L28.9066875,1.875 L28.9065938,3.75 L21.796875,3.75 C21.2790938,3.75 20.859375,4.1698125 20.859375,4.6875 C20.859375,5.2051875 21.2790938,5.625 21.796875,5.625 L28.9066875,5.625 L28.9066875,6.73903125 C28.9066875,9.22640625 26.8830938,11.25 24.3957188,11.25 L14.5155938,11.25 C12.9734063,11.25 11.71875,9.99534375 11.71875,8.45315625 Z M12.75,17.2693125 L12.75,12.7774688 C13.2950625,13.000875 13.8910312,13.125 14.5155938,13.125 L24.395625,13.125 C25.7869688,13.125 27.0748125,12.6764063 28.1249063,11.9180625 L28.1249063,17.2693125 C28.1249063,21.5082188 24.6763125,24.9568125 20.4374063,24.9568125 C16.1985,24.9568125 12.75,21.5082187 12.75,17.2693125 Z M23.4375,26.3492813 L23.4375,27.774 C23.4375,29.4282187 22.0917187,30.774 20.4375,30.774 C18.7832812,30.774 17.4375,29.4282187 17.4375,27.774 L17.4375,26.3492813 C18.3814687,26.6619375 19.3899375,26.8318125 20.4375,26.8318125 C21.4850625,26.8318125 22.4935312,26.6619375 23.4375,26.3492813 Z M15.9133125,29.5864688 C16.6341562,31.3793438 18.3898125,32.649 20.4375,32.649 C22.4851875,32.649 24.2408438,31.3793438 24.9616875,29.5864688 L27.4782187,29.5864688 L20.4375,41.7812812 L13.3967813,29.5864688 L15.9133125,29.5864688 Z M39,46.125 L35.625,46.125 L35.625,41.625 C35.625,41.1073125 35.2052813,40.6875 34.6875,40.6875 C34.1697188,40.6875 33.75,41.1073125 33.75,41.625 L33.75,46.125 L7.125,46.125 L7.125,38.6420625 C7.125,38.124375 6.70528125,37.7045625 6.1875,37.7045625 C5.66971875,37.7045625 5.25,38.124375 5.25,38.6420625 L5.25,46.125 L1.875,46.125 L1.875,39.8989688 C1.875,34.5265313 6.00478125,30.10125 11.2562813,29.6289375 L19.6255313,44.1250313 C19.7929688,44.4150938 20.1024375,44.5937813 20.4374062,44.5937813 C20.772375,44.5937813 21.0818437,44.4150938 21.2492812,44.1250313 L29.6185313,29.6289375 C34.8702187,30.10125 39,34.5265313 39,39.8989688 L39,46.125 Z" id="Shape" fill="#44B4E1"></path>
                            <path d="M17.9325,16.365 C17.758125,16.190625 17.51625,16.0903125 17.2696875,16.0903125 C17.023125,16.0903125 16.78125,16.190625 16.606875,16.365 C16.4325,16.539375 16.3321875,16.78125 16.3321875,17.0278125 C16.3321875,17.274375 16.4325,17.51625 16.606875,17.690625 C16.78125,17.8649063 17.023125,17.9653125 17.2696875,17.9653125 C17.51625,17.9653125 17.758125,17.865 17.9325,17.690625 C18.106875,17.51625 18.2071875,17.274375 18.2071875,17.0278125 C18.2071875,16.78125 18.106875,16.539375 17.9325,16.365 Z" id="Shape" fill="#B6C1E5"></path>
                            <path d="M24.2934375,16.365 C24.1190625,16.1907187 23.878125,16.0903125 23.630625,16.0903125 C23.3840625,16.0903125 23.1421875,16.190625 22.9678125,16.365 C22.7934375,16.539375 22.693125,16.78125 22.693125,17.0278125 C22.693125,17.274375 22.7934375,17.51625 22.9678125,17.690625 C23.143125,17.865 23.3840625,17.9653125 23.630625,17.9653125 C23.878125,17.9653125 24.1190625,17.865 24.2934375,17.690625 C24.46875,17.51625 24.568125,17.274375 24.568125,17.0278125 C24.568125,16.78125 24.46875,16.539375 24.2934375,16.365 Z" id="Shape" fill="#B6C1E5"></path>
                            <path d="M18.826875,4.0246875 C18.6525,3.8503125 18.410625,3.75 18.1640625,3.75 C17.9175,3.75 17.675625,3.85021875 17.50125,4.0246875 C17.326875,4.1990625 17.2265625,4.4409375 17.2265625,4.6875 C17.2265625,4.9340625 17.326875,5.1759375 17.50125,5.35021875 C17.675625,5.5246875 17.9175,5.625 18.1640625,5.625 C18.410625,5.625 18.6525,5.5246875 18.826875,5.35021875 C19.00125,5.1759375 19.1015625,4.9340625 19.1015625,4.6875 C19.1015625,4.4409375 19.00125,4.1990625 18.826875,4.0246875 Z" id="Shape" fill="#B6C1E5"></path>
                            <path d="M21.87,20.077875 C21.5039063,19.711875 20.9102813,19.711875 20.5440938,20.077875 C20.4606563,20.1613125 20.3633438,20.1736875 20.3127188,20.1736875 C20.2620938,20.1736875 20.1646875,20.1612187 20.0813438,20.077875 C19.71525,19.711875 19.121625,19.711875 18.7554375,20.077875 C18.3893438,20.4439687 18.3893438,21.0375937 18.7554375,21.4037812 C19.1848125,21.8330625 19.7487188,22.04775 20.3127188,22.04775 C20.8767188,22.04775 21.440625,21.8330625 21.87,21.4037812 C22.2360938,21.0375937 22.2360938,20.4439687 21.87,20.077875 Z" id="Shape" fill="#B6C1E5"></path>
                            <path d="M35.3503125,37.4165625 C35.1759375,37.2421875 34.9340625,37.141875 34.6875,37.141875 C34.4409375,37.141875 34.1990625,37.2421875 34.0246875,37.4165625 C33.8503125,37.5909375 33.75,37.8328125 33.75,38.079375 C33.75,38.3259375 33.8503125,38.5678125 34.0246875,38.7421875 C34.1990625,38.9164687 34.4409375,39.016875 34.6875,39.016875 C34.9340625,39.016875 35.1759375,38.9165625 35.3503125,38.7421875 C35.5246875,38.5678125 35.625,38.3259375 35.625,38.079375 C35.625,37.8328125 35.5246875,37.5909375 35.3503125,37.4165625 Z" id="Shape" fill="#B6C1E5"></path>
                        </g>
                    </g>
                </g>
            </g>
        </g>
    </g>
</svg>