<?xml version="1.0"?>
<svg xmlns="http://www.w3.org/2000/svg" id="Layer_1" data-name="Layer 1" viewBox="0 0 512 512" width="512" height="512"><title>air port  pin location</title><path d="M46.109,241.35l12.91,9.747a9.652,9.652,0,0,0,7.558,1.783l142.484-26.416c2.394,55.572,5.25,113.836,8.143,136.554,1.623,12.745,5.721,34.9,10.137,57.266L166.184,458.1a9.638,9.638,0,0,0-3.349,3.5l-6.6,11.837a9.646,9.646,0,0,0,8.368,14.334,9.735,9.735,0,0,0,3.411-.622L235.8,461.841c3.428,16.432,6.016,28.427,6.309,29.785a6,6,0,0,0,5.864,4.733h.07a6,6,0,0,0,5.823-4.866l5.783-30.075,68.546,25.6a9.769,9.769,0,0,0,3.422.625,9.649,9.649,0,0,0,8.239-14.544l-6.9-11.677a9.662,9.662,0,0,0-3.225-3.291l-61.792-38.235c3.677-17.835,8.9-44.023,10.438-55.969,3.011-23.411,6.1-81.942,8.719-137.49l142.918,26.151a9.64,9.64,0,0,0,7.538-1.787l12.9-9.74a9.629,9.629,0,0,0-2.429-16.706L289.893,165.227c.461-10.172.9-19.622,1.3-27.969a79.122,79.122,0,0,0-13.23-47.9,35.606,35.606,0,0,0-59.3,0,79.647,79.647,0,0,0-13.33,47.872c.366,8.381.761,17.844,1.182,28.018L48.522,224.65a9.631,9.631,0,0,0-2.413,16.7Zm123.745,232.3,3.162-5.671,56.83-35.14c1.181,5.866,2.357,11.624,3.486,17.109Zm153.066-5.63,3.191,5.4-64.169-23.961,2.213-11.509c.112-.523.538-2.523,1.179-5.566ZM439.777,234.079l-8.627,6.513L287.659,214.337c.571-12.363,1.117-24.434,1.63-35.777.011-.248.022-.488.033-.734ZM228.647,96a23.605,23.605,0,0,1,39.317,0A67.192,67.192,0,0,1,279.2,136.685c-.569,11.9-1.207,26.017-1.9,41.333-2.948,65.192-6.983,154.476-10.828,184.373-1.58,12.283-7.422,41.235-11.063,58.8a5.964,5.964,0,0,0-.153.74c-1.652,7.96-2.815,13.408-2.851,13.579-.009.04-.017.081-.025.121l-4.694,24.413c-.408-1.958-.829-3.983-1.259-6.061a5.983,5.983,0,0,0-.373-2.379c-.068-.182-.146-.357-.229-.529-1.806-8.743-3.759-18.322-5.682-27.978a5.954,5.954,0,0,0-.446-2.237c-4.6-23.189-8.95-46.478-10.591-59.359-3.707-29.1-7.4-118.808-10.1-184.308-.616-14.959-1.185-28.769-1.7-40.49A67.73,67.73,0,0,1,228.647,96Zm-21.62,81.871c.476,11.566.984,23.882,1.517,36.485L65.416,240.891l-8.641-6.524Z" style="fill:#0635c9"/><path d="M398.958,185.6a6,6,0,0,0,9.869,0l49.953-72.2a61.148,61.148,0,0,0-8.445-79.413c-25.61-24.394-67.275-24.393-92.884,0a61.146,61.146,0,0,0-8.445,79.413ZM365.729,42.677l-4.139-4.345,4.139,4.344c21.042-20.046,55.286-20.045,76.329,0a49.2,49.2,0,0,1,6.853,63.9l-45.018,65.071-45.018-65.071A49.2,49.2,0,0,1,365.729,42.677Z" style="fill:#1ae5be"/><path d="M403.893,114.431a36,36,0,1,0-36-36A36.041,36.041,0,0,0,403.893,114.431Zm0-60a24,24,0,1,1-24,24A24.027,24.027,0,0,1,403.893,54.431Z" style="fill:#1ae5be"/><path d="M249.108,361.5c-3.707-29.1-7.4-118.808-10.1-184.308-.616-14.959-1.185-28.769-1.7-40.49A67.73,67.73,0,0,1,248.647,96a23.585,23.585,0,0,1,9.659-8.307c-.078-.036-.153-.079-.232-.115A23.607,23.607,0,0,0,228.647,96,67.73,67.73,0,0,0,217.312,136.7c.512,11.721,1.081,25.531,1.7,40.49,2.7,65.5,6.392,155.206,10.1,184.308,1.641,12.881,5.989,36.17,10.591,59.359a5.954,5.954,0,0,1,.446,2.237c1.923,9.656,3.876,19.235,5.682,27.978.083.172.161.347.229.529a5.983,5.983,0,0,1,.373,2.379c.43,2.078.851,4.1,1.259,6.061l4.694-24.413c.008-.04.016-.081.025-.121.036-.171,1.2-5.619,2.851-13.579a5.964,5.964,0,0,1,.153-.74c.679-3.276,1.434-6.947,2.224-10.832C253.843,390.86,250.5,372.433,249.108,361.5Z" style="fill:#d4e1f4"/></svg>
