<svg xmlns="http://www.w3.org/2000/svg" width="16.343" height="10.293" viewBox="0 0 16.343 10.293">
  <defs>
    <style>
      .cls-1 {
        fill: #7bff8f;
      }
    </style>
  </defs>
  <g id="graph" transform="translate(0 -94.766)">
    <g id="Group_1" data-name="Group 1" transform="translate(0 94.766)">
      <path id="Path_2" data-name="Path 2" class="cls-1" d="M16.29,95.19a.688.688,0,0,0-.149-.223s-.008,0-.012-.008a.7.7,0,0,0-.212-.14.686.686,0,0,0-.2-.041c-.021,0-.038-.011-.058-.011H10.163a.687.687,0,1,0,0,1.373h3.843L8.57,101.606,6.5,98.958a.687.687,0,0,0-1.014-.076L.214,103.875a.687.687,0,0,0,.944,1L5.884,100.4l2.083,2.666a.687.687,0,0,0,1.029.062l5.975-6.009v3.829a.687.687,0,0,0,1.373,0V95.453h0A.705.705,0,0,0,16.29,95.19Z" transform="translate(0 -94.766)"/>
    </g>
  </g>
</svg>
