<?xml version="1.0"?>
<svg xmlns="http://www.w3.org/2000/svg" id="Layer_1" data-name="Layer 1" viewBox="0 0 512 512" width="512" height="512"><title>Application performance</title><polygon points="91.946 455 75.849 323 53.41 323 71.946 475 148.532 475 142.434 455 91.946 455" style="fill:#d4e1f4"/><path d="M352.771,390.34a85.293,85.293,0,0,1-52.3,7.258l-74.708-13.757a33.708,33.708,0,0,0-24.574,3.335c-.093.053-.186.107-.276.165l-33.908,21.435-22.1-72.485-1.939,1.727a54.663,54.663,0,0,1-20.164,11.375l24.2,79.383,33.908-21.435c.09-.058.183-.112.276-.165a33.708,33.708,0,0,1,24.574-3.335L280.474,417.6a85.293,85.293,0,0,0,52.3-7.258l124-85.138a23.858,23.858,0,0,0-4.195-3.387Z" style="fill:#d4e1f4"/><path d="M366.576,119.609l-19.682-1.9a92.934,92.934,0,0,0-9.832-23.366l12.511-15.108a6,6,0,0,0-.352-8.043l-22.49-22.779a6,6,0,0,0-8.1-.405L303.491,60.553a94.785,94.785,0,0,0-23.33-9.859l-1.9-19.477A5.822,5.822,0,0,0,272.291,26H240a5.824,5.824,0,0,0-5.972,5.217l-1.9,19.577a92.812,92.812,0,0,0-23.366,9.781L193.654,48.038a6,6,0,0,0-8.07.366L162.806,71.176a6,6,0,0,0-.379,8.067l12.541,15.14a94.823,94.823,0,0,0-9.859,23.33l-19.685,1.9A6,6,0,0,0,140,125.582v32.294a6,6,0,0,0,5.424,5.973l19.682,1.9a92.949,92.949,0,0,0,9.832,23.366l-12.511,15.108a6,6,0,0,0,.379,8.069l22.778,22.778a6,6,0,0,0,8.07.379l15.143-12.54a94.792,94.792,0,0,0,23.331,9.859l1.9,19.748A6.056,6.056,0,0,0,240,258h32.294a6.054,6.054,0,0,0,5.972-5.488l1.9-19.713a92.965,92.965,0,0,0,23.367-9.849l15.108,12.5a6,6,0,0,0,8.069-.383l22.778-22.78a6,6,0,0,0,.379-8.07L337.32,189.077a94.781,94.781,0,0,0,9.86-23.337l19.4-1.892A6,6,0,0,0,372,157.876V125.582A6,6,0,0,0,366.576,119.609ZM360,152.433l-18.226,1.778a6,6,0,0,0-5.282,4.7,82.915,82.915,0,0,1-11.576,27.425,6,6,0,0,0,.421,7.08l11.8,14.246-15.054,15.053-14.247-11.8a6,6,0,0,0-7.154-.371,80.4,80.4,0,0,1-27.35,11.526,6.075,6.075,0,0,0-4.7,5.353L266.842,246H245.447l-1.784-18.57a6.037,6.037,0,0,0-4.7-5.321,82.984,82.984,0,0,1-27.426-11.592,6,6,0,0,0-7.079.413l-14.247,11.793-15.053-15.055,11.8-14.247a6,6,0,0,0,.372-7.156,80.376,80.376,0,0,1-11.527-27.35,6,6,0,0,0-5.289-4.7L152,152.427v-21.4l18.507-1.783a6,6,0,0,0,5.289-4.7,82.936,82.936,0,0,1,11.576-27.425,6,6,0,0,0-.421-7.08l-11.8-14.246,15.053-15.054,14.247,11.8a6,6,0,0,0,7.155.371,80.386,80.386,0,0,1,27.35-11.526,5.769,5.769,0,0,0,4.7-5.082L245.447,38h21.394l1.784,18.3a5.884,5.884,0,0,0,4.7,5.186,82.778,82.778,0,0,1,27.425,11.524,6,6,0,0,0,7.08-.447l14.219-11.788,14.815,15-11.82,14.269a6,6,0,0,0-.372,7.154A80.391,80.391,0,0,1,336.2,124.544a6,6,0,0,0,5.288,4.7L360,131.031Z" style="fill:#1ae5be"/><path d="M256.144,72.854a68.875,68.875,0,1,0,68.875,68.875A68.953,68.953,0,0,0,256.144,72.854Zm0,125.75a56.875,56.875,0,1,1,56.875-56.875A56.939,56.939,0,0,1,256.144,198.6Z" style="fill:#1ae5be"/><path d="M277.861,121.079,248.546,149.7l-14.407-14.065a6,6,0,1,0-8.383,8.586l18.6,18.158a6,6,0,0,0,8.383,0l33.507-32.714a6,6,0,1,0-8.383-8.586Z" style="fill:#1ae5be"/><path d="M422.538,309.855l-1.911,1.031c-9.073-10.772-24.592-14.9-36.439-8.9-.045.023-.09.046-.134.07l-4.962,2.673a40.01,40.01,0,0,0-45.59-3.953L305.525,316H268.266a53.539,53.539,0,0,1-23.172-5.319l-5.138-2.489a88.568,88.568,0,0,0-92.178,9q-.2.147-.382.311L134.99,328.547A42.634,42.634,0,0,1,119.3,337.4l-6.93-22.938A6.194,6.194,0,0,0,106.634,310h-60a6.337,6.337,0,0,0-5.956,7.038l20,163.844A5.866,5.866,0,0,0,66.634,486h90a5.715,5.715,0,0,0,5.739-7.439l-11.736-38.442,36.546-23.079a21.772,21.772,0,0,1,15.854-2.033c.124.031.25.065.376.087l74.9,13.8a97.366,97.366,0,0,0,60.154-8.491,5.992,5.992,0,0,0,.734-.43l129.557-88.955a6,6,0,0,0,1.744-8.041A35.975,35.975,0,0,0,422.538,309.855Zm-32.865,2.807c6.479-3.241,14.589-.71,19.957,4.157l-48.61,26.225-2.455,1.3a42.989,42.989,0,0,0-6.336-11.5Zm-50.37-1.387c.048-.026.1-.052.143-.08a27.978,27.978,0,0,1,27.833-.1l-24.094,12.982a42.866,42.866,0,0,0-14.827-6.852ZM71.946,474,53.41,322h48.78l46.342,152Zm260.825-64.168a85.277,85.277,0,0,1-52.3,7.258l-74.708-13.757a33.725,33.725,0,0,0-24.573,3.334c-.094.052-.187.107-.278.165l-33.907,21.436-24.2-79.384a54.635,54.635,0,0,0,20.164-11.374l12.219-10.879a76.618,76.618,0,0,1,79.544-7.641l5.137,2.493a65.6,65.6,0,0,0,28.4,6.517H318.1a31.094,31.094,0,0,1,30.4,24.733l-35.589-1.614a216.705,216.705,0,0,0-39.38,1.816,6,6,0,1,0,1.645,11.885,204.407,204.407,0,0,1,37.193-1.717l42.5,1.923c.091,0,.181,0,.272,0a6,6,0,0,0,6-6c0-.822-.028-1.639-.074-2.45l5.592-2.949,61.569-33.216a24,24,0,0,1,28.533,4.278Z" style="fill:#0635c9"/><path d="M88.918,451.721a18,18,0,1,0,18-18A18.021,18.021,0,0,0,88.918,451.721Zm18-6a6,6,0,1,1-6,6A6.006,6.006,0,0,1,106.918,445.721Z" style="fill:#0635c9"/></svg>
