<?xml version="1.0"?>
<svg xmlns="http://www.w3.org/2000/svg" id="Layer_1" data-name="Layer 1" viewBox="0 0 512 512" width="512" height="512"><title>global presence</title><path d="M87.539,401.034a195.908,195.908,0,0,1,40.591-31.787c15.584,37.642,40.073,68.61,71.858,90.025A201.6,201.6,0,0,1,87.539,401.034Z" style="fill:#d4e1f4"/><path d="M123.768,173.4C114.48,199.586,109.3,228,108.707,260H32.1A193.239,193.239,0,0,1,79.417,139.23,207.474,207.474,0,0,0,123.768,173.4Z" style="fill:#d4e1f4"/><path d="M108.707,272c.591,31,5.773,59.933,15.061,86.125a208.6,208.6,0,0,0-44.351,34.4A194.846,194.846,0,0,1,32.1,272Z" style="fill:#d4e1f4"/><path d="M199.989,71.767c-31.785,21.416-56.275,52.384-71.859,90.025a195.9,195.9,0,0,1-40.591-31.786A201.606,201.606,0,0,1,199.989,71.767Z" style="fill:#d4e1f4"/><path d="M232.484,473.865c1.477,0,2.948-.026,4.417-.055a6.125,6.125,0,0,0,.8.056,6,6,0,0,0,1.031-.1c114.285-3.254,206.236-95.416,206.236-208.248,0-8.6-.5-28.087-1.488-36.277l-11.914,1.44c.908,7.5,1.4,26.945,1.4,34.837a193.121,193.121,0,0,1-47.908,127.219,208.894,208.894,0,0,0-44.017-34.418c9.983-27.981,15.282-59.271,15.282-92.8,0-5.7-.159-11.448-.473-17.072a6,6,0,0,0-6.325-5.656,6.22,6.22,0,0,0-5.656,6.565c.191,3.433.316,6.643.387,10.643H238V201.937a216.083,216.083,0,0,0,60.922-10.34c1.957-.634,4.042-1.3,5.96-1.984l-4.967-10.305c-1.808.645-2.873.274-4.719.872a202.235,202.235,0,0,1-57.2,9.753V70.223a166.581,166.581,0,0,1,53.811,41.346l9.154-7.9a185.535,185.535,0,0,0-36.093-31.942,202.317,202.317,0,0,1,40.668,10.9l1.13.432,4.365-11.181-1.171-.455a215.223,215.223,0,0,0-77.382-14.249C115.318,57.175,20,150.638,20,265.52S115.32,473.865,232.484,473.865ZM87.539,401.034a195.908,195.908,0,0,1,40.591-31.787c15.584,37.642,40.073,68.61,71.858,90.025A201.6,201.6,0,0,1,87.539,401.034ZM123.768,173.4C114.48,199.586,109.3,228,108.707,260H32.1A193.239,193.239,0,0,1,79.417,139.23,207.474,207.474,0,0,0,123.768,173.4ZM226,460.824c-39-19.745-70.024-53.862-87.758-97.415A205.873,205.873,0,0,1,226,341.1Zm12-119.717a202.742,202.742,0,0,1,87.607,22.664C307.854,407.15,278,441.134,238,460.824ZM226,329.1a218.825,218.825,0,0,0-91.766,23.254C125.772,327.877,121.283,301,120.709,272H226ZM108.707,272c.591,31,5.773,59.933,15.061,86.125a208.6,208.6,0,0,0-44.351,34.4A194.846,194.846,0,0,1,32.1,272ZM376.9,401.565A201.612,201.612,0,0,1,264.98,459.272c31.665-21.334,56.087-52.148,71.679-89.6A196.748,196.748,0,0,1,376.9,401.565ZM344.26,272a261.366,261.366,0,0,1-14.131,80.7A214.147,214.147,0,0,0,238,329.1V272ZM120.709,260c.574-29,5.063-56.357,13.525-80.83A218.333,218.333,0,0,0,226,201.944V260Zm17.533-92.37C155.977,124.078,187,89.961,226,70.216v119.72A205.86,205.86,0,0,1,138.242,167.63Zm61.747-95.863c-31.785,21.416-56.275,52.384-71.859,90.025a195.9,195.9,0,0,1-40.591-31.786A201.606,201.606,0,0,1,199.989,71.767Z" style="fill:#0635c9"/><path d="M459.949,67.963a104.975,104.975,0,0,0-146.6,0,107.078,107.078,0,0,0-31.83,69.093,100.141,100.141,0,0,0,6.284,41.99c4.967,13.345,13.042,25.91,24,37.347l70.512,73.6a6,6,0,0,0,8.666,0l70.513-73.6c10.956-11.436,19.03-24,24-37.346a100.126,100.126,0,0,0,6.282-41.989A107.081,107.081,0,0,0,459.949,67.963Zm14.3,106.9c-4.4,11.8-11.6,22.983-21.419,33.232l-66.18,69.078-66.18-69.078c-9.819-10.249-17.025-21.429-21.418-33.232a88.2,88.2,0,0,1-5.557-36.985,95.083,95.083,0,0,1,28.271-61.355,92.974,92.974,0,0,1,129.768,0,95.085,95.085,0,0,1,28.271,61.355A88.216,88.216,0,0,1,474.249,174.859Z" style="fill:#1ae5be"/><path d="M386.65,66c-38.541,0-69.9,31.535-69.9,70.3s31.355,70.3,69.9,70.3,69.9-31.535,69.9-70.3S425.19,66,386.65,66Zm0,128.594c-31.923,0-57.9-26.152-57.9-58.3S354.727,78,386.65,78s57.9,26.152,57.9,58.3S418.574,194.594,386.65,194.594Z" style="fill:#1ae5be"/><path d="M386.65,105.887a12.013,12.013,0,0,1,12,12,6,6,0,0,0,6,6,6.151,6.151,0,0,0,6.175-6A24.275,24.275,0,0,0,393,94.647V90a6,6,0,1,0-12,0v4.649a23.485,23.485,0,0,0-18.175,23.24,23.953,23.953,0,0,0,23.913,24,12,12,0,0,1,.059,23.994c-.042,0-.094-.006-.136-.006s-.088,0-.13.006a12.012,12.012,0,0,1-11.878-11.994,6,6,0,0,0-6-6,5.854,5.854,0,0,0-5.826,6A23.485,23.485,0,0,0,381,177.128V182.6a6,6,0,0,0,12,0v-5.469a24.028,24.028,0,0,0-6.262-47.241,12,12,0,0,1-.088-24Z" style="fill:#1ae5be"/></svg>
