<?xml version="1.0" encoding="UTF-8"?>
<svg width="12px" height="12px" viewBox="0 0 12 12" version="1.1" xmlns="http://www.w3.org/2000/svg" xmlns:xlink="http://www.w3.org/1999/xlink">
    <!-- Generator: Sketch 51.2 (57519) - http://www.bohemiancoding.com/sketch -->
    <title>phone-receiver</title>
    <desc>Created with Sketch.</desc>
    <defs></defs>
    <g id="Page-1" stroke="none" stroke-width="1" fill="none" fill-rule="evenodd">
        <g id="Desktop-HD-ver.-2.4" transform="translate(-1117.000000, -37.000000)" fill="#D4D4D4" fill-rule="nonzero">
            <g id="Group">
                <g id="Group-2" transform="translate(435.000000, 34.000000)">
                    <g id="Group-3" transform="translate(682.000000, 0.000000)">
                        <g id="phone-receiver" transform="translate(0.000000, 3.000000)">
                            <path d="M11.9964706,9.46978547 C12.0219031,9.66462976 11.962526,9.83404152 11.8185882,9.97802076 L10.1287059,11.6551349 C10.0524706,11.7398408 9.95296194,11.8119031 9.83013841,11.8711349 C9.70731488,11.9304498 9.58662976,11.9685675 9.46808304,11.9854879 C9.45961246,11.9854879 9.43413841,11.9876678 9.39176471,11.9919031 C9.34947405,11.9961176 9.29441522,11.9982768 9.22665052,11.9982768 C9.06566782,11.9982768 8.80517647,11.9707474 8.44517647,11.9156678 C8.08517647,11.8605882 7.64472664,11.7250381 7.12382699,11.5090796 C6.60280277,11.2930796 6.012,10.9690381 5.35131488,10.5370796 C4.69062976,10.1051419 3.98755017,9.51215917 3.24213841,8.75825606 C2.64919723,8.17378547 2.15790311,7.61472664 1.76825606,7.08110035 C1.378609,6.54743253 1.06519723,6.05402076 0.828020761,5.60084429 C0.590823529,5.14766782 0.412941176,4.73684429 0.294352941,4.3683737 C0.175764706,3.99990311 0.0952941176,3.68225606 0.0529411765,3.41543253 C0.0105882353,3.148609 -0.00635294118,2.93896194 0.00211764706,2.78649135 C0.0105882353,2.63402076 0.0148235294,2.54931488 0.0148235294,2.5323737 C0.0317647059,2.41378547 0.0698823529,2.29307958 0.129176471,2.17025606 C0.188470588,2.04743253 0.260470588,1.94790311 0.345176471,1.87166782 L2.03505882,0.181785467 C2.15364706,0.0631972318 2.28917647,0.00390311419 2.44164706,0.00390311419 C2.55176471,0.00390311419 2.64917647,0.0356678201 2.73388235,0.0991972318 C2.81858824,0.162726644 2.89058824,0.241079585 2.94988235,0.334256055 L4.30941176,2.91355017 C4.38564706,3.04907958 4.40682353,3.19731488 4.37294118,3.35825606 C4.33905882,3.51919723 4.26705882,3.65472664 4.15694118,3.76484429 L3.53435294,4.38743253 C3.51741176,4.4043737 3.50258824,4.43190311 3.48988235,4.47002076 C3.47717647,4.50813841 3.47082353,4.53990311 3.47082353,4.56531488 C3.50470588,4.74319723 3.58094118,4.94649135 3.69952941,5.17519723 C3.80117647,5.37849135 3.95788235,5.62625606 4.16964706,5.91849135 C4.38141176,6.21072664 4.68211765,6.54741176 5.07176471,6.92858824 C5.45294118,7.31827682 5.79176471,7.62105882 6.08823529,7.83710035 C6.3846436,8.0530173 6.63249135,8.21190311 6.83155017,8.31355017 C7.030609,8.41519723 7.18307958,8.476609 7.28894118,8.49772318 L7.44772318,8.52950865 C7.46466436,8.52950865 7.49225606,8.52313495 7.53033218,8.51044983 C7.56844983,8.49772318 7.59597924,8.48292042 7.61294118,8.46595848 L8.33715571,7.7290173 C8.48970934,7.59350865 8.66750865,7.52574394 8.87082353,7.52574394 C9.01486505,7.52574394 9.12915571,7.55113495 9.21386159,7.60197924 L9.22654671,7.60197924 L11.6787612,9.05044983 C11.8567059,9.16065052 11.9625675,9.3003737 11.9964706,9.46978547 Z" id="Shape"></path>
                        </g>
                    </g>
                </g>
            </g>
        </g>
    </g>
</svg>