<?xml version="1.0" encoding="UTF-8"?>
<svg width="48px" height="43px" viewBox="0 0 48 43" version="1.1" xmlns="http://www.w3.org/2000/svg" xmlns:xlink="http://www.w3.org/1999/xlink">
    <!-- Generator: Sketch 51.2 (57519) - http://www.bohemiancoding.com/sketch -->
    <title>career</title>
    <desc>Created with Sketch.</desc>
    <defs></defs>
    <g id="Page-1" stroke="none" stroke-width="1" fill="none" fill-rule="evenodd">
        <g id="Desktop-HD-ver.-2.4" transform="translate(-185.000000, -1805.000000)" fill-rule="nonzero">
            <g id="Group-8" transform="translate(135.000000, 1542.000000)">
                <g id="Group-16-Copy" transform="translate(0.000000, 198.000000)">
                    <g id="Group-7" transform="translate(50.000000, 65.000000)">
                        <g id="career">
                            <path d="M42.3246563,16.3720313 L42.3169688,16.3405313 C42.1925625,15.8379375 41.6843438,15.5314688 41.1818438,15.6557813 C40.6793438,15.7801875 40.3726875,16.2883125 40.4970938,16.791 L40.5027188,16.8137813 C40.6066875,17.2427813 40.9902188,17.5305 41.4129375,17.5305 C41.4860625,17.5305 41.5604063,17.521875 41.6345625,17.503875 C42.137625,17.3818125 42.4467188,16.8750938 42.3246563,16.3720313 Z" id="Shape" fill="#B6C1E5"></path>
                            <path d="M17.502,28.0549687 C15.171375,26.6487187 13.7799375,24.1862812 13.7799375,21.4680937 C13.7799375,20.6279062 13.9144687,19.8023437 14.1796875,19.0144687 C14.344875,18.523875 14.0809688,17.992125 13.590375,17.8270313 C13.0997812,17.6620313 12.568125,17.9258438 12.4029375,18.4164375 C12.07275,19.3974375 11.9053125,20.4241875 11.9053125,21.4681875 C11.9053125,24.8490938 13.6355625,27.911625 16.5335625,29.6603437 C16.6851562,29.75175 16.8520312,29.79525 17.0169375,29.79525 C17.3345625,29.79525 17.6443125,29.633625 17.820375,29.341875 C18.0878438,28.898625 17.9453437,28.3225312 17.502,28.0549687 Z" id="Shape" fill="#B6C1E5"></path>
                            <path d="M28.0202813,14.5056562 C26.24025,12.8296875 23.9128125,11.906625 21.4667813,11.906625 C20.32125,11.906625 19.200375,12.1074375 18.135375,12.50325 C17.650125,12.6837188 17.403,13.22325 17.583375,13.7085938 C17.76375,14.1939375 18.3032813,14.4410625 18.7887188,14.2605937 C19.6440938,13.9425938 20.5450313,13.7813438 21.466875,13.7813438 C23.4332813,13.7813438 25.30425,14.5232813 26.7350625,15.8705625 C26.9160938,16.0410937 27.147,16.1255625 27.3774375,16.1255625 C27.6268125,16.1255625 27.875625,16.0266562 28.060125,15.8307187 C28.4149688,15.4538437 28.3970625,14.8605 28.0202813,14.5056562 Z" id="Shape" fill="#B6C1E5"></path>
                            <path d="M47.0625937,21.7505625 L40.0101562,21.7505625 L40.0101562,19.81125 C40.0101562,18.8685938 39.2431875,18.101625 38.3005312,18.101625 L37.042125,18.101625 C36.3976875,15.1063125 34.9135312,12.3781875 32.73525,10.1998125 C29.0389687,6.50353125 23.75775,4.855125 18.6077812,5.78953125 C18.0984375,5.88196875 17.760375,6.36984375 17.8528125,6.87928125 C17.94525,7.38871875 18.4332187,7.72640625 18.9425625,7.63425 C23.4874687,6.8094375 28.1481562,8.2640625 31.4095312,11.525625 C33.2356875,13.3517813 34.509375,15.6150938 35.1195937,18.1017187 L30.0021562,18.1017187 C29.0595,18.1017187 28.2925312,18.8686875 28.2925312,19.8113437 L28.2925312,21.7506563 L21.2400937,21.7506563 C20.7224062,21.7506563 20.3026875,22.1704687 20.3026875,22.6880625 L20.3026875,28.4385938 C20.3026875,29.3185313 20.6453437,30.1194375 21.2034375,30.716625 L21.2034375,35.5273125 C17.5464375,35.464875 14.1312188,34.0182188 11.524125,31.4110313 C8.17771875,28.064625 6.74409375,23.2943437 7.6891875,18.6503438 C7.79240625,18.1430625 7.46484375,17.6480625 6.9575625,17.5448438 C6.45009375,17.4415313 5.95528125,17.7691875 5.8520625,18.2764688 C4.78125,23.5385625 6.4059375,28.9441875 10.1983125,32.7366562 C13.116375,35.6547187 17.0907188,37.3298437 21.2033437,37.400625 L21.2033437,40.7974688 C21.2033437,40.8854063 21.20925,40.9718438 21.2196562,41.0569687 C10.5301875,40.9240312 1.87471875,32.1886875 1.87471875,21.4682813 C1.87471875,18.1160625 2.727375,14.8393125 4.34690625,11.9355 L7.50975,15.1133437 C7.68571875,15.2901562 7.924875,15.3895312 8.17415625,15.3895312 L14.0700937,15.3895312 L19.8500625,21.1695 C20.0331562,21.3525937 20.2730625,21.4440937 20.512875,21.4440937 C20.7527812,21.4440937 20.9927812,21.3525937 21.1756875,21.1695 C21.5417812,20.8034062 21.5417812,20.209875 21.1756875,19.8436875 L15.395625,14.0637187 L15.395625,8.16778125 C15.395625,7.91878125 15.2965312,7.68 15.1201875,7.504125 L11.9485312,4.34025 C14.8485937,2.72615625 18.1199062,1.87640625 21.4664062,1.87640625 C29.0710312,1.87640625 36.0520312,6.336375 39.251625,13.2388125 C39.41025,13.581 39.748875,13.7821875 40.1026875,13.7821875 C40.2346875,13.7821875 40.36875,13.7541562 40.4963437,13.695 C40.9660312,13.4772187 41.1703125,12.9199687 40.952625,12.4502812 C39.2539687,8.78578125 36.5631562,5.6805 33.1708125,3.47025 C29.6882813,1.20103125 25.6409063,0.0016875 21.4665,0.0016875 C17.6206875,0.0016875 13.8645,1.02628125 10.5729375,2.96803125 L7.87509375,0.27646875 C7.6066875,0.0088125 7.20375,-0.0710625 6.85378125,0.07425 C6.50371875,0.21946875 6.27571875,0.56109375 6.27571875,0.94003125 L6.27571875,6.2525625 L0.94678125,6.2525625 C0.5679375,6.2525625 0.2265,6.48046875 0.0811875,6.83015625 C-0.064125,7.1799375 0.0151875,7.5826875 0.282375,7.8511875 L2.97609375,10.5576563 C1.02796875,13.853625 0,17.6157188 0,21.4681875 C0,27.202125 2.2329375,32.5929375 6.2874375,36.6474375 C10.3419375,40.7020313 15.73275,42.934875 21.4666875,42.934875 L44.9607187,42.9359063 C46.1399062,42.9359063 47.09925,41.9766562 47.09925,40.797375 L47.09925,30.717 C47.6805,30.096375 48,29.2913438 48,28.4368125 L48,22.687875 C48,22.1702813 47.5802812,21.7505625 47.0625937,21.7505625 Z M8.1504375,3.1993125 L13.521,8.5565625 L13.521,12.1850625 L8.1504375,6.80240625 L8.1504375,3.1993125 Z M6.82415625,8.12746875 L12.1952813,13.5143438 L8.56378125,13.5143438 L3.2023125,8.12746875 L6.82415625,8.12746875 Z M30.16725,19.9764375 L38.1351563,19.9764375 L38.1351563,21.7505625 L30.16725,21.7505625 L30.16725,19.9764375 Z M45.2243438,36.5608125 L39.0726563,36.5608125 C38.5549688,36.5608125 38.13525,36.980625 38.13525,37.4982188 C38.13525,38.0158125 38.5549688,38.435625 39.0726563,38.435625 L45.2243438,38.435625 L45.2243438,40.7972813 C45.2243438,40.9427813 45.106125,41.0610938 44.9607188,41.0610938 L24.4909688,41.0610938 C24.4842188,41.061 24.47775,41.0600625 24.471,41.0600625 L23.33175,41.0600625 C23.1910313,41.0547188 23.0780625,40.9394063 23.0780625,40.797375 L23.0780625,31.7293125 C23.2615313,31.760625 23.4497813,31.777875 23.6419688,31.777875 L31.3729688,31.777875 C31.5391875,33.1636875 32.721375,34.241625 34.15125,34.241625 C35.5832813,34.241625 36.7669688,33.1603125 36.9302813,31.7714063 L44.6582813,31.7762813 C44.6590313,31.7762813 44.6596875,31.7762813 44.6604375,31.7762813 C44.8514063,31.7762813 45.03975,31.7594063 45.2243438,31.7281875 L45.22425,36.5608125 L45.2243438,36.5608125 Z M33.2271563,31.442625 L33.2271563,29.7947812 L35.0755312,29.7947812 L35.0755312,31.442625 C35.0755312,31.95225 34.660875,32.3668125 34.1513437,32.3668125 C33.6418125,32.3668125 33.2271563,31.95225 33.2271563,31.442625 Z M46.1251875,28.4368125 C46.1251875,28.8283125 45.97275,29.1961875 45.6958125,29.4728438 C45.4191563,29.7493125 45.0515625,29.9015625 44.6604375,29.9015625 C44.6601563,29.9015625 44.659875,29.9015625 44.6595,29.9015625 L36.95025,29.8966875 L36.95025,29.0375625 C36.95025,28.4213438 36.4489688,27.9199687 35.8326563,27.9199687 L32.46975,27.9199687 C31.8535313,27.9199687 31.3521563,28.42125 31.3521563,29.0375625 L31.3521563,29.9030625 L23.6419688,29.9030625 C22.8343125,29.9030625 22.1773125,29.2459688 22.1773125,28.4384063 L22.1773125,23.625375 L46.1251875,23.625375 L46.1250938,28.4368125 L46.1251875,28.4368125 Z" id="Shape" fill="#44B4E1"></path>
                            <path d="M35.1425625,36.8355 C34.9681875,36.661125 34.7263125,36.5608125 34.4798438,36.5608125 C34.2323438,36.5608125 33.9915,36.6610313 33.8161875,36.8355 C33.6418125,37.009875 33.5424375,37.25175 33.5424375,37.4982187 C33.5424375,37.7447813 33.6418125,37.9865625 33.8161875,38.1608438 C33.9915,38.3352188 34.2324375,38.435625 34.4798438,38.435625 C34.7264063,38.435625 34.9673438,38.3353125 35.1425625,38.1608438 C35.3169375,37.9865625 35.41725,37.7446875 35.41725,37.4982187 C35.41725,37.25175 35.3169375,37.009875 35.1425625,36.8355 Z" id="Shape" fill="#B6C1E5"></path>
                        </g>
                    </g>
                </g>
            </g>
        </g>
    </g>
</svg>