<?xml version="1.0" encoding="UTF-8"?>
<svg width="48px" height="48px" viewBox="0 0 48 48" version="1.1" xmlns="http://www.w3.org/2000/svg" xmlns:xlink="http://www.w3.org/1999/xlink">
    <!-- Generator: Sketch 51.2 (57519) - http://www.bohemiancoding.com/sketch -->
    <title>selection</title>
    <desc>Created with Sketch.</desc>
    <defs></defs>
    <g id="Page-1" stroke="none" stroke-width="1" fill="none" fill-rule="evenodd">
        <g id="Desktop-HD-ver.-2.4" transform="translate(-757.000000, -1602.000000)" fill-rule="nonzero">
            <g id="Group-8" transform="translate(135.000000, 1542.000000)">
                <g id="Group-16" transform="translate(572.000000, 0.000000)">
                    <g id="Group-7" transform="translate(50.000000, 60.000000)">
                        <g id="selection">
                            <path d="M39.6447188,8.35528125 C35.4659062,4.176375 29.9098125,1.875 24,1.875 C18.0901875,1.875 12.5340938,4.176375 8.35528125,8.35528125 C4.176375,12.5340938 1.875,18.0901875 1.875,24 C1.875,29.9098125 4.176375,35.4659062 8.35528125,39.6447188 C12.5340938,43.823625 18.0901875,46.125 24,46.125 C29.9098125,46.125 35.4659062,43.823625 39.6447188,39.6447188 C43.823625,35.4659062 46.125,29.9098125 46.125,24 C46.125,18.0901875 43.823625,12.5340938 39.6447188,8.35528125 Z M24,44.25 C12.8340937,44.25 3.75,35.1659063 3.75,24 C3.75,12.8340937 12.8340937,3.75 24,3.75 C35.1659063,3.75 44.25,12.8340937 44.25,24 C44.25,35.1659063 35.1659063,44.25 24,44.25 Z" id="Shape" fill="#44B4E1"></path>
                            <path d="M42.0179062,20.3779688 C40.8604687,14.58975 36.9482812,9.679875 31.5527812,7.24425 C31.08075,7.03115625 30.5255625,7.2410625 30.3125625,7.713 C30.0995625,8.1849375 30.309375,8.74021875 30.7813125,8.95321875 C35.626875,11.1405938 39.1401562,15.549 40.179375,20.7456563 C40.2685312,21.1913438 40.6599375,21.4995 41.0976562,21.4995 C41.1585,21.4995 41.2204687,21.4935 41.2824375,21.481125 C41.7901875,21.3795938 42.1194375,20.8857188 42.0179062,20.3779688 Z" id="Shape" fill="#B6C1E5"></path>
                            <path d="M28.3495313,6.14296875 L28.315875,6.1348125 C27.8123438,6.0136875 27.3061875,6.3238125 27.1851563,6.82725 C27.0642188,7.33078125 27.3741563,7.8369375 27.8775938,7.95796875 L27.9010313,7.96359375 C27.9763125,7.98215625 28.0517813,7.9910625 28.1260313,7.9910625 C28.54725,7.9910625 28.9302188,7.70503125 29.0355,7.27753125 C29.1594375,6.77475 28.8523125,6.2668125 28.3495313,6.14296875 Z" id="Shape" fill="#B6C1E5"></path>
                            <path d="M21.0628125,6.7831875 C20.949,6.27796875 20.446875,5.961 19.942125,6.0748125 C16.6050937,6.82715625 13.5467812,8.5014375 11.0978437,10.916625 C8.6510625,13.32975 6.93496875,16.3613438 6.135,19.6838438 C6.01378125,20.1871875 6.32353125,20.6935313 6.82696875,20.81475 C6.90065625,20.8324688 6.97453125,20.841 7.0471875,20.841 C7.47046875,20.841 7.85446875,20.5523438 7.957875,20.1227813 C9.41540625,14.0693437 14.2813125,9.2731875 20.3544375,7.90396875 C20.8595625,7.7900625 21.1767188,7.28821875 21.0628125,6.7831875 Z" id="Shape" fill="#B6C1E5"></path>
                            <path d="M16.903875,38.900625 C12.2285625,36.6698437 8.8329375,32.3160938 7.82071875,27.2543437 C7.7191875,26.7466875 7.22521875,26.4171562 6.7175625,26.518875 C6.2098125,26.6204062 5.8805625,27.1142812 5.98209375,27.6220312 C7.10953125,33.2599687 10.8905625,38.1089062 16.0964062,40.5928125 C16.226625,40.6550625 16.3640625,40.6844062 16.4994375,40.6844062 C16.8495,40.6844062 17.1854062,40.4874375 17.3462812,40.1505 C17.5693125,39.6831562 17.3712187,39.1235625 16.903875,38.900625 Z" id="Shape" fill="#B6C1E5"></path>
                            <path d="M20.117625,40.0409063 C19.61475,39.9165938 19.1068125,40.2239063 18.9829688,40.7265938 C18.8590313,41.229375 19.1660625,41.7374063 19.66875,41.8613438 L19.6816875,41.8645313 C19.7560313,41.8825313 19.8302813,41.89125 19.9034063,41.89125 C20.3251875,41.89125 20.7062813,41.6030625 20.810625,41.1743438 C20.9329688,40.6711875 20.6206875,40.16325 20.117625,40.0409063 Z" id="Shape" fill="#B6C1E5"></path>
                            <path d="M41.1729375,27.1853437 C40.6696875,27.0639375 40.16325,27.373875 40.0420313,27.8773125 C38.5845,33.9306562 33.7185937,38.7269062 27.6454687,40.096125 C27.1403437,40.2100312 26.8231875,40.7116875 26.9370937,41.2168125 C27.0353437,41.6525625 27.4221562,41.9483437 27.8507812,41.9483437 C27.919125,41.9483437 27.9884062,41.9408437 28.0577812,41.9251875 C31.3948125,41.1728437 34.453125,39.4986562 36.9020625,37.083375 C39.3488438,34.6703437 41.0649375,31.6386562 41.8649063,28.31625 C41.986125,27.8128125 41.676375,27.3064687 41.1729375,27.1853437 Z" id="Shape" fill="#B6C1E5"></path>
                            <path d="M24,0 C23.4822188,0 23.0625,0.41971875 23.0625,0.9375 L23.0625,7.96875 C23.0625,8.48653125 23.4822188,8.90625 24,8.90625 C24.5177813,8.90625 24.9375,8.48653125 24.9375,7.96875 L24.9375,0.9375 C24.9375,0.41971875 24.5177813,0 24,0 Z" id="Shape" fill="#B6C1E5"></path>
                            <path d="M24,39.09375 C23.4822188,39.09375 23.0625,39.5135625 23.0625,40.03125 L23.0625,47.0625 C23.0625,47.5801875 23.4822188,48 24,48 C24.5177813,48 24.9375,47.5801875 24.9375,47.0625 L24.9375,40.03125 C24.9375,39.5135625 24.5177813,39.09375 24,39.09375 Z" id="Shape" fill="#B6C1E5"></path>
                            <path d="M47.0625,23.0625 L40.03125,23.0625 C39.5134688,23.0625 39.09375,23.4822188 39.09375,24 C39.09375,24.5176875 39.5134688,24.9375 40.03125,24.9375 L47.0625,24.9375 C47.5802812,24.9375 48,24.5176875 48,24 C48,23.4822188 47.5802812,23.0625 47.0625,23.0625 Z" id="Shape" fill="#B6C1E5"></path>
                            <path d="M7.96875,23.0625 L0.9375,23.0625 C0.41971875,23.0625 0,23.4822188 0,24 C0,24.5176875 0.41971875,24.9375 0.9375,24.9375 L7.96875,24.9375 C8.48653125,24.9375 8.90625,24.5176875 8.90625,24 C8.90625,23.4822188 8.48653125,23.0625 7.96875,23.0625 Z" id="Shape" fill="#B6C1E5"></path>
                            <path d="M26.8892797,22.6783096 C26.8815931,22.6761242 26.8737557,22.6745417 26.8659937,22.6726577 C27.5712804,21.8850787 28.0012047,20.8460261 28.0012047,19.7081022 L28.0012047,13.553592 C28.0012047,13.1373831 27.6638215,12.8 27.2476127,12.8 L22.6701443,12.8 C20.7033447,12.8 19.1032428,14.4001018 19.1032428,16.3669015 L19.1032428,19.7081022 C19.1032428,20.8460261 19.5331671,21.8850787 20.2384538,22.6726577 C20.2306918,22.6745417 20.2228544,22.6761996 20.2151678,22.6783096 C16.9588215,22.9784653 14.4,25.7243284 14.4,29.0576917 L14.4,31.7151584 C14.4,32.1312919 14.7373831,32.4687504 15.153592,32.4687504 L31.9508555,32.4687504 C32.3670644,32.4687504 32.7044475,32.1312919 32.7044475,31.7151584 L32.7044475,29.0576917 C32.7045229,25.7243284 30.1457013,22.9785407 26.8892797,22.6783096 Z M23.5523745,22.6499746 C21.9302678,22.6499746 20.6105775,21.3302843 20.6105775,19.7081776 L20.6105775,18.7121551 L25.1143445,18.7121551 C25.6138253,18.7121551 26.083916,18.584572 26.4941714,18.3604537 L26.4941714,19.7081776 C26.4941714,21.3302843 25.1744812,22.6499746 23.5523745,22.6499746 Z M24.8659606,24.1570831 L23.5522991,25.4707447 L22.2386376,24.1570831 L24.8659606,24.1570831 Z M20.6104268,16.3669015 L20.6105021,16.3669015 C20.6105021,15.2311631 21.5344813,14.3071839 22.6702197,14.3071839 L26.4940961,14.3071839 L26.4940961,15.8252196 C26.4940961,16.5860461 25.8750956,17.2050465 25.1142692,17.2050465 L20.6104268,17.2050465 L20.6104268,16.3669015 Z M31.1973389,30.9615665 L15.9072593,30.9615665 L15.9072593,29.0576917 C15.9072593,26.577922 17.7590608,24.523781 20.1522429,24.2022233 L23.0194342,27.0694147 C23.1666107,27.2165158 23.3594549,27.2901417 23.5522991,27.2901417 C23.7451433,27.2901417 23.9380628,27.2165158 24.085164,27.0694147 L26.9523554,24.2022233 C29.3455374,24.523781 31.1973389,26.577922 31.1973389,29.0576917 L31.1973389,30.9615665 Z" id="Shape" fill="#44B4E1"></path>
                        </g>
                    </g>
                </g>
            </g>
        </g>
    </g>
</svg>