<?xml version="1.0" encoding="UTF-8"?>
<svg width="18px" height="18px" viewBox="0 0 18 18" version="1.1" xmlns="http://www.w3.org/2000/svg" xmlns:xlink="http://www.w3.org/1999/xlink">
    <!-- Generator: Sketch 51.2 (57519) - http://www.bohemiancoding.com/sketch -->
    <title>exclamation-mark</title>
    <desc>Created with Sketch.</desc>
    <defs></defs>
    <g id="Page-1" stroke="none" stroke-width="1" fill="none" fill-rule="evenodd">
        <g id="Desktop-HD-ver.-2.4" transform="translate(-402.000000, -559.000000)" fill="#E2574C" fill-rule="nonzero">
            <g id="Group-5" transform="translate(135.000000, 548.000000)">
                <g id="exclamation-mark" transform="translate(267.000000, 11.000000)">
                    <path d="M8.97033449,0 C4.01644599,0 0,4.01644599 0,8.97033449 C0,13.9247875 4.01644599,17.940669 8.97033449,17.940669 C13.9247875,17.940669 17.940669,13.9253519 17.940669,8.97033449 C17.940669,4.01644599 13.9247247,0 8.97033449,0 Z M8.97033449,16.2587038 C4.94491986,16.2587038 1.68196516,12.9957491 1.68196516,8.97033449 C1.68196516,4.94491986 4.94491986,1.68196516 8.97033449,1.68196516 C12.9957491,1.68196516 16.2587038,4.94491986 16.2587038,8.97033449 C16.2587038,12.9957491 12.9957491,16.2587038 8.97033449,16.2587038 Z M8.97089895,3.93403484 C8.32841812,3.93403484 7.84229268,4.26932404 7.84229268,4.81089199 L7.84229268,9.77820209 C7.84229268,10.3203345 8.3283554,10.6544948 8.97089895,10.6544948 C9.59770035,10.6544948 10.0995052,10.3063484 10.0995052,9.77820209 L10.0995052,4.81089199 C10.0994425,4.28218118 9.59770035,3.93403484 8.97089895,3.93403484 Z M8.97089895,11.7735679 C8.35363066,11.7735679 7.85126132,12.2759373 7.85126132,12.8937073 C7.85126132,13.5104111 8.35363066,14.0127805 8.97089895,14.0127805 C9.58816725,14.0127805 10.0899721,13.5104111 10.0899721,12.8937073 C10.0899094,12.2758746 9.58816725,11.7735679 8.97089895,11.7735679 Z" id="Shape"></path>
                </g>
            </g>
        </g>
    </g>
</svg>